<svg width="84" height="77" viewBox="0 0 84 77" fill="none" xmlns="http://www.w3.org/2000/svg">
<path d="M14.618 0.655922C13.5516 0.902115 13.2398 1.44374 11.4023 6.15425L9.67969 10.5693V19.859C9.67969 28.6728 9.69609 29.1816 9.975 29.4278C10.3852 29.8053 11.2547 29.7724 11.6484 29.3785C11.9602 29.0667 11.9766 28.8369 11.9766 20.5976V12.145H24.6914H37.4062V21.4183C37.4062 31.4301 37.3898 31.2988 38.2594 31.9061C38.6367 32.1851 39.4734 32.2508 39.9656 32.0538C40.1297 32.0046 41.6555 30.6916 43.3781 29.1652C45.1008 27.6388 46.5937 26.3421 46.7086 26.3093C46.8234 26.2601 48.1523 27.3269 49.6617 28.6728C53.8289 32.3493 53.5992 32.1687 54.2391 32.1687C54.9937 32.1687 55.6664 31.8076 55.9125 31.266C56.0602 30.9542 56.1094 28.3937 56.1094 21.5003V12.145H68.8242H81.5391V39.3083C81.5391 69.5738 81.6375 67.1118 80.407 67.4565C79.6687 67.6534 58.0781 67.6863 58.0781 67.4729C58.0781 67.4072 58.6195 67.2924 59.2922 67.2595C61.1461 67.1446 62.2945 66.3568 63.0164 64.7484C63.7875 63.025 63.3773 61.0719 61.9828 59.8245L61.3266 59.2172L61.6547 58.8725C62.5406 57.937 62.9508 55.7705 62.4914 54.5395C62.2125 53.7681 61.5234 52.8982 60.9 52.4879C60.5719 52.2581 56.0602 50.3706 50.8922 48.2534C45.7242 46.1525 41.5242 44.4128 41.557 44.3799C41.5898 44.3471 43.6242 43.707 46.0852 42.9356C48.6609 42.1478 50.8266 41.3764 51.1875 41.1302C52.4344 40.3095 53.107 38.3892 52.6805 36.83C52.4836 36.075 51.532 34.8933 50.843 34.5486C49.7109 33.9577 48.9562 33.9413 46.4297 34.4665C33.3703 37.2239 26.6273 38.4713 22.1977 38.9801C19.3594 39.3083 18.7687 39.2755 18.8508 38.8159C19.1625 37.0598 18.9656 36.2719 18.0961 35.6483C17.5055 35.2543 10.6805 32.497 10.2703 32.497C9.59766 32.497 8.53125 33.1699 8.20312 33.81C7.44844 35.2708 0 53.8338 0 54.2277C0 54.8021 0.360937 55.6556 0.7875 56.0167C1.24687 56.4434 7.82578 59.1023 8.62969 59.2008C9.43359 59.2993 10.1719 58.971 10.6969 58.2653C10.8937 57.9862 11.1562 57.7729 11.2875 57.7729C11.7141 57.7729 14.2898 59.0695 15.3234 59.8081C15.8812 60.202 17.0625 61.3016 17.9484 62.27C18.8344 63.222 20.0484 64.3709 20.6391 64.8304C21.6562 65.5854 23.707 66.7343 25.1016 67.3088C25.6102 67.5221 25.0523 67.5385 19.6219 67.5878C11.7305 67.637 11.9766 67.7355 11.9766 64.4037C11.9766 62.8609 11.9273 62.4998 11.6812 62.1879C11.3039 61.7284 10.4836 61.6956 10.0078 62.1223C9.7125 62.3849 9.67969 62.6147 9.67969 64.6499C9.67969 66.6523 9.72891 66.9641 10.0734 67.7191C10.2867 68.1787 10.7133 68.7531 11.025 68.9829C12.2719 69.9512 11.9766 69.9184 22.1977 69.9184H31.6148L39.6867 73.2174C47.25 76.2866 47.8406 76.5 48.8086 76.5C51.1055 76.5 52.9922 74.6946 52.9922 72.5117V71.9372L53.9437 71.8223C55.0922 71.691 56.5031 71.0345 56.9625 70.3944L57.3234 69.9184H68.9719C76.8797 69.9184 80.85 69.8528 81.293 69.7379C82.1625 69.5081 83.5242 68.113 83.8031 67.1939C83.9508 66.6687 84 60.202 84 38.619V10.7335L82.2117 6.17066C81.2273 3.6759 80.2594 1.44375 80.0625 1.23038C79.8656 1.01701 79.3898 0.770821 78.9961 0.67234C78.0773 0.442558 72.7289 0.442558 72.0562 0.67234C71.1375 0.984184 71.0062 2.33005 71.843 2.77319C72.0398 2.88808 73.4016 2.95374 75.2719 2.95374H78.3891L79.1602 4.95611C79.5867 6.07219 80.1773 7.58218 80.4727 8.32076C80.768 9.05933 80.9648 9.69944 80.9156 9.74868C80.8664 9.79792 75.2391 9.84716 68.3977 9.84716H55.9453L55.8633 9.46966C55.8141 9.27271 55.4531 7.74631 55.0758 6.07219L54.3703 3.0358L59.2102 2.98656C63.9187 2.95373 64.0664 2.93732 64.4273 2.59265C65.1 1.96896 64.8539 0.984184 63.968 0.67234C63.3445 0.458969 15.5203 0.442551 14.618 0.655922ZM39.2109 3.05221C39.2109 3.26558 37.718 9.56814 37.6359 9.69944C37.5375 9.87998 12.6328 9.8964 12.6328 9.73227C12.6328 9.63379 14.4867 4.77557 15.0281 3.47894L15.2414 2.95374H27.218C33.8133 2.95374 39.2109 3.00297 39.2109 3.05221ZM52.6805 6.31838C53.0906 8.1238 53.4187 9.6502 53.3695 9.71585C53.2711 9.9128 40.1953 9.87998 40.1953 9.69944C40.1953 9.61738 40.5234 8.10738 40.9336 6.3512C41.3438 4.57861 41.6719 3.10145 41.6719 3.05221C41.6719 2.98656 43.9687 2.97015 46.7906 2.98656L51.9094 3.0358L52.6805 6.31838ZM53.8125 20.614C53.8125 28.5415 53.7961 29.0831 53.5336 28.8697C53.3859 28.7384 52.1883 27.688 50.8758 26.5227C49.5633 25.3738 48.2344 24.2249 47.9555 24.0115C47.332 23.5191 46.4461 23.4699 45.8391 23.8802C45.4453 24.1264 41.7211 27.3761 40.4086 28.6235L39.8672 29.1159V20.6304V12.145H46.8398H53.8125V20.614ZM13.6664 36.3212C16.2094 37.3552 16.5703 37.5522 16.5211 37.8312C16.4391 38.2579 9.02344 56.4927 8.84297 56.6896C8.67891 56.8866 2.42812 54.3262 2.49375 54.08C2.52656 53.9815 4.28203 49.6321 6.39844 44.4292C9.41719 37.0105 10.3031 34.9753 10.5 35.041C10.6313 35.0902 12.0586 35.6647 13.6664 36.3212ZM49.6945 36.6823C50.6297 37.1582 50.6461 38.7339 49.7273 39.2099C49.5469 39.3248 46.7578 40.211 43.5586 41.2122C40.3594 42.197 37.5539 43.0997 37.3242 43.1982C36.832 43.428 36.5859 44.0845 36.7828 44.6589C36.9633 45.2006 36.3234 44.9216 48.9727 50.0588C54.5672 52.3402 59.3414 54.3426 59.5875 54.5231C60.5227 55.1632 60.5391 56.706 59.6039 57.4446C58.6852 58.1668 58.6687 58.1668 50.6953 54.917C46.5937 53.2265 43.0828 51.8642 42.8859 51.8642C41.9344 51.8642 41.4094 53.1608 42.0984 53.8338C42.2625 53.9979 46.3641 55.7377 51.1875 57.6908C57.3234 60.1856 60.1125 61.4001 60.4406 61.712C60.7687 62.0402 60.9328 62.3685 60.982 62.9265C61.0641 63.6159 61.0312 63.7143 60.4898 64.256C59.9484 64.7976 59.6203 64.9125 58.8164 64.8304C58.6359 64.814 54.4852 63.1727 49.5797 61.1868C39.9328 57.2641 40.1133 57.2969 39.5555 58.2817C39.2109 58.9054 39.4242 59.5126 40.1625 59.8901C40.4906 60.0543 43.5422 61.3181 46.9219 62.6967C54.9445 65.9629 55.043 65.9957 55.3547 66.6194C56.0438 67.9325 55.125 69.426 53.632 69.426C53.4352 69.426 49.9242 68.0638 45.8391 66.3896C41.7375 64.7155 38.2758 63.3533 38.1609 63.3533C38.0461 63.3533 37.7508 63.501 37.5047 63.6979C36.9797 64.1083 36.9141 64.9617 37.3898 65.3885C37.5539 65.5362 40.343 66.7343 43.575 68.0638C46.8234 69.3768 49.6617 70.5914 49.9078 70.7719C50.4328 71.133 50.7609 72.0357 50.6133 72.6922C50.5641 72.9384 50.3016 73.3651 50.0391 73.6113C49.1203 74.4976 49.2352 74.5305 36.5859 69.3604C30.2203 66.7671 24.5766 64.4201 24.0352 64.1411C22.6734 63.4517 21.7547 62.746 20.5078 61.4329C17.3906 58.1504 15.8648 57.0015 13.2562 55.9346L11.993 55.4258L12.2391 54.835C12.3703 54.5067 13.5187 51.7001 14.7984 48.5816C16.0617 45.4632 17.243 42.5909 17.407 42.1806L17.7352 41.4256L19.2609 41.4913C21.2133 41.5733 23.0672 41.3764 28.6289 40.4408C32.5992 39.7679 43.2633 37.6506 46.9219 36.7972C48.6445 36.3868 49.1039 36.3704 49.6945 36.6823Z" fill="#666666"/>
</svg>
