<svg width="114" height="71" viewBox="0 0 114 71" fill="none" xmlns="http://www.w3.org/2000/svg">
<path d="M19.3869 0.810234C18.3178 1.18694 16.9813 2.38355 16.4022 3.4472C15.9567 4.28927 15.9122 4.73246 15.8453 8.36661C15.7785 12.178 15.7785 12.3996 16.2463 12.9758C16.9145 13.8178 18.251 13.8178 18.8969 12.9979C19.3201 12.4661 19.3647 12.1116 19.3647 8.89843C19.3647 5.46372 19.3647 5.39724 19.9438 4.73246L20.5229 4.04552H48.2099H75.8968L76.4759 4.73246L77.0551 5.4194V32.4318V59.4442H63.49H49.9473L49.4572 58.1367C48.544 55.6549 46.4057 53.4389 44.0891 52.5526C39.0997 50.6247 33.3529 53.306 31.7269 58.2919L31.3482 59.4442H26.0024H20.6566L20.0106 58.8015L19.3647 58.1589V52.0207V45.9047L18.8078 45.3729C18.095 44.6416 17.0704 44.6416 16.3576 45.3729L15.8008 45.9047V52.0872C15.8008 58.7794 15.8899 59.422 17.0481 60.9288C17.3377 61.3277 18.0728 61.926 18.6519 62.2584L19.6988 62.8789L25.5124 62.9453L31.3482 63.0118L31.6155 64.009C32.2838 66.3579 34.333 68.6182 36.8723 69.7926C38.0528 70.3466 38.4315 70.4131 40.6366 70.4131C42.7081 70.4131 43.2427 70.3466 44.2005 69.9034C46.7843 68.7068 48.5217 66.8676 49.4795 64.2749L49.9473 62.9897L68.1008 63.034L86.2543 63.1005L86.633 64.2306C87.1899 65.8261 87.9472 66.9341 89.395 68.2415C90.9765 69.6818 92.6025 70.3244 95.0081 70.4796C98.0152 70.6568 100.421 69.6818 102.448 67.5102C103.383 66.513 104.675 64.0976 104.675 63.3664C104.675 63.034 104.965 62.9897 107.526 62.9897C109.776 62.9897 110.533 62.901 111.246 62.5686C112.36 62.0811 113.496 60.818 113.808 59.7322C113.986 59.1561 114.03 55.1452 113.986 46.9241L113.919 34.958L109.798 25.3186C105.9 16.1667 105.633 15.6128 104.564 14.5491C102.693 12.6655 102.849 12.6877 90.932 12.6877H80.619V9.07571C80.619 4.95405 80.3739 3.75744 79.238 2.40572C78.8593 1.94037 78.0351 1.3199 77.4115 1.03183L76.2755 0.5L48.2099 0.522163C26.7597 0.522163 19.9661 0.588638 19.3869 0.810234ZM101.668 16.6764C102.069 16.9202 102.448 17.2526 102.515 17.4077C102.581 17.5406 104.386 21.7952 106.546 26.8476L110.466 35.9995V40.2984V44.5973H108.529C106.969 44.5973 106.413 44.686 105.856 45.0405C104.452 45.8826 104.341 46.2814 104.341 50.3588C104.341 53.5497 104.386 54.1037 104.764 54.702C105.433 55.8322 106.323 56.2089 108.506 56.2975L110.466 56.3862V57.5828C110.466 59.3334 110.266 59.4442 107.214 59.4442C104.942 59.4442 104.675 59.3998 104.675 59.0453C104.675 58.8458 104.386 58.0481 104.007 57.2725C103.138 55.4111 101.334 53.6384 99.3962 52.7298C97.9929 52.0651 97.7033 52.0207 95.5427 52.0207C93.3821 52.0207 93.0926 52.0651 91.7116 52.7298C89.6846 53.6827 88.1477 55.1452 87.1899 57.0731C86.7667 57.9152 86.4103 58.8015 86.4103 59.0231C86.4103 59.422 86.1875 59.4442 83.5146 59.4442H80.619V37.8387V16.2332H90.776C100.599 16.2332 100.978 16.2554 101.668 16.6764ZM110.466 50.4696V52.8185L109.197 52.752L107.905 52.6855L107.838 50.4031L107.771 48.1428H109.13H110.466V50.4696ZM42.3517 55.677C43.5991 56.0316 44.9578 57.1839 45.7374 58.5356C46.2943 59.555 46.4057 59.976 46.4057 61.1948C46.3834 62.8789 46.0047 63.8982 44.9578 65.0948C42.0622 68.3744 36.3377 67.1335 35.0903 62.9675C34.6448 61.5271 34.6448 60.9288 35.068 59.5328C35.959 56.5191 39.2111 54.8128 42.3517 55.677ZM97.8815 55.9873C101.624 57.7157 102.492 62.5022 99.5966 65.3829C98.4607 66.4909 97.2579 66.9784 95.5205 66.9784C91.5334 66.9784 88.8604 63.3885 89.9742 59.4442C90.3974 57.9595 92.0234 56.2975 93.6494 55.7214C94.8522 55.3003 96.6787 55.4111 97.8815 55.9873Z" fill="#35A9C2"/>
<path d="M83.7124 18.7372C82.8883 19.3577 82.8438 19.823 82.8438 27.7561V35.5562L83.512 36.1989L84.1579 36.8636L95.3174 36.7972L106.499 36.7307L106.945 36.1767C107.279 35.7778 107.368 35.4233 107.279 34.8471C107.123 33.8056 100.93 19.3798 100.396 18.848C100.017 18.4713 99.4604 18.4491 92.043 18.4491C86.1181 18.4713 83.9797 18.5378 83.7124 18.7372ZM100.44 27.4459C101.732 30.4596 102.824 33.0079 102.846 33.0965C102.891 33.2073 99.2154 33.296 94.6714 33.296H86.4076V27.6453V21.9947H92.2658H98.1239L100.44 27.4459Z" fill="#35A9C2"/>
<path d="M39.9209 58.8237C37.6934 59.3999 37.4262 62.5465 39.5422 63.5437C40.6559 64.0755 41.6583 63.8318 42.527 62.8346C43.1729 62.1255 43.2397 61.9261 43.1284 61.0397C42.9502 59.3999 41.5023 58.4027 39.9209 58.8237Z" fill="#35A9C2"/>
<path d="M94.7851 58.8016C93.315 59.2226 92.5799 60.7516 93.159 62.1698C94.0946 64.3858 97.1684 64.2971 97.9257 62.0369C98.594 60.0647 96.7898 58.2033 94.7851 58.8016Z" fill="#35A9C2"/>
<path d="M9.42929 17.6071C8.93925 17.8287 8.44922 18.6486 8.44922 19.2469C8.44922 19.4464 8.73878 19.8895 9.09517 20.2441L9.74113 20.8867H25.8677C38.1854 20.8646 42.0611 20.7981 42.3284 20.5986C43.3085 19.8452 43.3753 18.6265 42.4843 17.7844C42.0166 17.3412 41.7716 17.3412 25.9568 17.3634C15.3765 17.3634 9.74113 17.452 9.42929 17.6071Z" fill="#35A9C2"/>
<path d="M0.541225 28.0886C-0.216101 28.8198 -0.171552 29.6397 0.630322 30.4375L1.29855 31.0801L17.4474 31.0358C33.2621 30.9693 33.6185 30.9693 34.0417 30.5261C34.7323 29.817 34.7323 28.6425 34.064 27.9778C33.6185 27.5346 33.329 27.5346 17.3583 27.5346H1.07581L0.541225 28.0886Z" fill="#35A9C2"/>
<path d="M6.53316 37.6614C5.26353 37.9051 4.7735 39.833 5.75356 40.6307C6.2436 41.0296 6.97865 41.0518 22.5929 41.0518H38.9422L39.3877 40.4756C40.0114 39.7 39.9669 38.9909 39.3209 38.2375L38.7863 37.617L22.8825 37.5949C14.151 37.5727 6.77818 37.5949 6.53316 37.6614Z" fill="#35A9C2"/>
</svg>
