<svg width="72" height="99" viewBox="0 0 72 99" fill="none" xmlns="http://www.w3.org/2000/svg">
<path d="M33.2478 0.972351C31.7823 1.4706 30.0027 2.57091 29.0605 3.54665C28.0974 4.54315 27.0506 6.49464 26.6737 7.96864L26.2969 9.38036L24.1823 9.46339C22.298 9.52567 21.9002 9.60872 20.6859 10.2108C19.0528 10.9997 17.3779 12.6813 16.8545 14.0722L16.4986 15.0064L10.1757 15.0687L3.87382 15.131L2.76418 15.7331C2.17796 16.0652 1.44518 16.6465 1.15206 17.0202C-0.0622577 18.598 0.000552039 16.169 0.000552039 56.9427V94.4361L0.50303 95.4949C1.06832 96.7198 2.38732 97.9031 3.53883 98.2353C4.69034 98.5882 67.3326 98.5882 68.4841 98.2353C69.5518 97.9239 70.8708 96.8028 71.4571 95.7025L71.9177 94.8513L71.9805 57.171C72.0224 16.1898 72.1061 18.6188 70.8918 17.041C70.5987 16.6465 69.845 16.0652 69.2587 15.7331L68.1491 15.131L61.8681 15.0687L55.5872 15.0064L55.1894 14.0722C54.6031 12.6605 52.9491 10.9997 51.3789 10.2315C50.2902 9.69176 49.6621 9.54643 48.2175 9.44263L46.4169 9.31807L46.1238 8.0932C45.3282 4.64696 42.1877 1.51212 38.7123 0.723221C37.1002 0.349533 34.7971 0.453339 33.2478 0.972351ZM39.78 3.27676C42.418 4.58468 44.3652 7.51191 44.3861 10.1693C44.3861 11.2488 44.8467 11.4356 47.4219 11.5394C50.039 11.6432 50.8555 11.9339 52.1745 13.3041C53.5772 14.7366 53.8075 15.5255 53.8075 19.117V22.2934H36.0115H18.2154V19.117C18.2154 15.5255 18.4457 14.7366 19.8484 13.3041C21.2093 11.8924 21.9421 11.6432 25.0616 11.5187C26.59 11.4356 27.9299 11.2903 28.0346 11.1865C28.1602 11.062 28.3487 10.3353 28.4534 9.5672C28.914 6.34932 30.8192 3.98262 33.7712 2.9446C35.4462 2.3633 38.2517 2.50863 39.78 3.27676ZM16.1217 19.6983V22.2934H12.06C8.62642 22.2934 7.93551 22.3557 7.66334 22.6255C7.37023 22.9162 7.32835 26.3002 7.32835 56.8389C7.32835 82.9141 7.39116 90.7823 7.57959 90.9691C7.93551 91.3221 64.0874 91.3221 64.4433 90.9691C64.6318 90.7823 64.6946 82.8933 64.6946 56.7143C64.6946 23.3106 64.6946 22.7294 64.2968 22.501C64.0455 22.3764 62.245 22.2934 59.9001 22.2934H55.9012V19.6983V17.1033H61.6169C67.1232 17.1033 67.3535 17.124 68.2538 17.56C68.8191 17.8506 69.3006 18.3074 69.5518 18.7641C69.9078 19.4492 69.9287 21.0893 69.9287 56.8596C69.9287 93.7718 69.9287 94.2285 69.51 94.9136C69.2797 95.2873 68.7981 95.7648 68.4213 95.9932C67.7304 96.4084 67.2907 96.4084 36.0115 96.4084C4.73222 96.4084 4.29255 96.4084 3.60164 95.9932C3.22478 95.7648 2.74324 95.2873 2.51294 94.9136C2.09421 94.2285 2.09421 93.7718 2.09421 56.8596C2.09421 21.0893 2.11515 19.4492 2.47107 18.7641C2.72231 18.3074 3.20385 17.8506 3.76914 17.56C4.66941 17.124 4.89971 17.1033 10.406 17.1033H16.1217V19.6983ZM62.6009 56.8596V89.3498H36.0115H9.42201V56.8596V24.3694H36.0115H62.6009V56.8596Z" fill="#35C27D"/>
<path d="M35.1524 8.19704C34.7755 8.9029 35.2152 9.62952 36.0108 9.62952C36.4714 9.62952 36.7017 9.50495 36.8692 9.13126C37.2042 8.40465 36.8064 7.76107 36.0108 7.76107C35.592 7.76107 35.3199 7.9064 35.1524 8.19704Z" fill="#35C27D"/>
<path d="M21.6289 36.8672L19.0537 39.4208L17.9441 38.3205C17.2951 37.6976 16.646 37.2409 16.3948 37.2409C15.9761 37.2409 15.2852 37.926 15.2852 38.3412C15.2852 38.445 16.0179 39.2754 16.8973 40.1681C18.0907 41.393 18.635 41.8082 19.0328 41.8082C19.4515 41.8082 20.2681 41.1439 22.5711 38.8395C25.5859 35.8292 25.9628 35.2479 25.2928 34.5836C24.7276 34.023 24.1413 34.376 21.6289 36.8672Z" fill="#35C27D"/>
<path d="M30.4032 34.8743C29.8589 35.248 29.817 35.8293 30.2776 36.286C30.5707 36.5766 32.0363 36.6182 43.342 36.6182H56.0924L56.4064 36.1614C56.8252 35.5594 56.8252 35.4556 56.3227 34.9573C55.904 34.5421 55.6318 34.5421 43.3839 34.5421C32.3922 34.5421 30.822 34.5836 30.4032 34.8743Z" fill="#35C27D"/>
<path d="M30.2961 39.8983C29.8355 40.3966 29.8564 40.8326 30.317 41.2478C30.673 41.5592 31.8873 41.6007 43.4024 41.6007H56.1109L56.4459 41.0817C56.7599 40.6042 56.7599 40.5212 56.4459 40.0437L56.1109 39.5247H43.3605C31.3011 39.5247 30.6101 39.5454 30.2961 39.8983Z" fill="#35C27D"/>
<path d="M21.627 50.5691L19.0518 53.1227L17.9421 52.0224C17.2931 51.3996 16.6441 50.9428 16.3928 50.9428C15.8485 50.9428 15.2832 51.6487 15.4298 52.1885C15.5972 52.832 18.5284 55.5101 19.0727 55.5101C19.4286 55.5101 20.4127 54.659 22.5482 52.5414C25.584 49.5311 25.9608 48.9498 25.2909 48.2855C24.7256 47.7249 24.1394 48.0779 21.627 50.5691Z" fill="#35C27D"/>
<path d="M30.2961 48.6177C29.8355 49.116 29.8564 49.5519 30.317 49.9671C30.673 50.2785 31.8663 50.3201 43.2977 50.3201C55.6294 50.3201 55.9015 50.3201 56.3203 49.9049C56.8227 49.4066 56.8227 49.3028 56.404 48.7007L56.09 48.244H43.3605C31.3011 48.244 30.6101 48.2648 30.2961 48.6177Z" fill="#35C27D"/>
<path d="M30.2776 53.5587C29.817 54.0155 29.8589 54.5968 30.4032 54.9704C30.822 55.2611 32.3922 55.3026 43.3839 55.3026C55.6318 55.3026 55.904 55.3026 56.3227 54.8874C56.8252 54.3892 56.8252 54.2853 56.4064 53.6833L56.0924 53.2266H43.342C32.0363 53.2266 30.5707 53.2681 30.2776 53.5587Z" fill="#35C27D"/>
<path d="M24.1801 61.7384C23.9498 61.8422 22.6726 62.984 21.3746 64.3127L18.9669 66.7001L17.7735 65.5791C16.7685 64.6241 16.4963 64.458 16.0986 64.6033C15.8473 64.7071 15.5542 64.9978 15.4495 65.2469C15.303 65.6621 15.5123 65.9528 16.9988 67.4683C17.941 68.4233 18.8622 69.2122 19.0297 69.2122C19.5321 69.2122 25.5409 63.1709 25.5409 62.6726C25.5409 61.8837 24.9128 61.4685 24.1801 61.7384Z" fill="#35C27D"/>
<path d="M30.2776 62.2781C29.817 62.7348 29.8589 63.3161 30.4032 63.6898C30.822 63.9805 32.3922 64.022 43.3839 64.022C55.6318 64.022 55.904 64.022 56.3227 63.6068C56.8252 63.1085 56.8252 63.0047 56.4064 62.4027L56.0924 61.9459H43.342C32.0363 61.9459 30.5707 61.9874 30.2776 62.2781Z" fill="#35C27D"/>
<path d="M30.1295 67.3644C29.962 67.6966 29.962 67.9457 30.1295 68.2986L30.3598 68.7969H43.3405H56.3421L56.5096 68.3194C56.698 67.8211 56.5934 67.3229 56.2374 67.0945C56.1118 67.0115 50.2496 66.9284 43.1939 66.9284H30.3808L30.1295 67.3644Z" fill="#35C27D"/>
<path d="M21.6499 77.7655L19.0747 80.2775L17.9232 79.2187C17.2951 78.6166 16.6251 78.1391 16.4576 78.1391C16.0598 78.1391 15.2852 78.8658 15.2852 79.2187C15.2852 79.5509 18.6978 82.9141 19.0537 82.9141C19.2003 82.9141 20.7287 81.5439 22.4455 79.8623C24.9369 77.3918 25.5441 76.7067 25.5441 76.2292C25.5441 75.6894 25.0625 75.2327 24.4763 75.2327C24.3298 75.2327 23.0526 76.3745 21.6499 77.7655Z" fill="#35C27D"/>
<path d="M30.1295 76.0839C29.962 76.4161 29.962 76.6652 30.1295 77.0181L30.3598 77.5164H43.173C50.2286 77.5164 56.1118 77.4333 56.2374 77.3503C56.5934 77.1219 56.698 76.6237 56.5096 76.1046L56.3421 75.6479H43.3614H30.3808L30.1295 76.0839Z" fill="#35C27D"/>
<path d="M30.338 80.8173C29.9193 81.1495 29.8774 81.2948 30.0449 81.793L30.2542 82.3951L43.1302 82.4574L56.0062 82.4989L56.3831 82.0629C56.8437 81.5024 56.8228 81.3363 56.3203 80.8381C55.9015 80.4229 55.6294 80.4229 43.3605 80.4229C31.3639 80.4229 30.7986 80.4436 30.338 80.8173Z" fill="#35C27D"/>
</svg>
