<svg width="158" height="78" viewBox="0 0 158 78" fill="none" xmlns="http://www.w3.org/2000/svg">
<path d="M60.8051 27.4989V24.7494L21.6672 24.3228C17.4241 24.6072 16.5586 28.0203 16.5254 29.4898V37.5485C16.5254 38.8758 18.7884 40.8826 19.92 41.7201H15.0277V43H64V41.7201H60.8051V39.4921H23.1149C20.2395 38.9612 19.5206 37.1219 19.5206 36.2686V30.3431C20.0398 27.7264 21.6672 26.9774 23.1149 26.9774L60.8051 27.4989Z" fill="#99BFEC"/>
<path fill-rule="evenodd" clip-rule="evenodd" d="M11.9326 10.5282C11.4834 10.7969 10.2853 11.3436 9.08716 11.3815C8.10539 11.3499 5.7225 10.7558 4.04517 8.63207C3.47116 7.92845 2.55687 6.87674 1.86867 6.0851C1.45957 5.61451 1.13035 5.23582 1 5.07677C1 5.07677 1.54932 5.26638 2.84707 5.4086C3.44631 5.50339 4.72409 5.41808 5.44295 5.26638C6.64105 4.87135 9.08736 4.4605 9.83598 4.74494C10.4017 4.93455 11.8029 5.92053 12.8811 8.34763C12.8899 8.27327 12.8974 8.13984 12.9072 7.96519C12.9538 7.1379 13.0524 5.38553 13.58 4.60271C14.0457 3.76283 15.0322 3.54125 16.175 3.28454C16.2577 3.26596 16.3413 3.24719 16.4255 3.22799C17.5737 3.02258 20.3593 2.28939 22.3162 1C21.817 3.44921 20.3393 8.54673 18.4223 9.34312C17.607 9.65914 15.6967 10.2533 14.5784 10.1016C15.0111 12.0293 16.6452 16.0366 19.7203 16.6433C21.767 17.2912 26.9488 17.9517 31.3019 15.4108C34.6133 13.5621 41.6355 9.79819 43.233 9.53273C44.8138 9.09029 48.7442 8.55621 51.8193 9.95937C53.3835 10.7336 56.4287 13.1354 57.5103 15.9797C57.9429 17.1174 58.7883 20.2555 58.7084 23.7065L21.6672 23.1851C20.0699 23.1851 18.8716 23.8488 18.8716 23.8488C17.7736 24.3228 16.9247 25.3657 16.9247 25.3657C15.2607 23.6275 12.5816 19.5824 11.9326 15.9323C11.6377 14.2731 11.5732 11.3246 11.9326 10.5282ZM49.3732 15.3634C48.1751 15.2212 47.8756 17.0937 49.3732 17.307C50.3716 17.4492 51.0705 15.5649 49.3732 15.3634Z" fill="#99BFEC"/>
<path d="M22.3661 28.7788L58.958 29.3002M22.2163 31.7652L58.8582 32.1919M58.8582 34.9413L22.1664 34.6095M22.1664 37.5485H58.958M11.9326 10.5282C11.4834 10.7969 10.2853 11.3436 9.08716 11.3815C8.10539 11.3499 5.7225 10.7558 4.04517 8.63207C3.47116 7.92845 2.55687 6.87674 1.86867 6.0851C1.45957 5.61451 1.13035 5.23582 1 5.07677C1 5.07677 1.54932 5.26638 2.84707 5.4086C3.44631 5.50339 4.72409 5.41808 5.44295 5.26638C6.64105 4.87135 9.08736 4.4605 9.83598 4.74494C10.4017 4.93455 11.8029 5.92053 12.8811 8.34763C12.8899 8.27327 12.8974 8.13984 12.9072 7.96519C12.9538 7.1379 13.0524 5.38553 13.58 4.60271C14.0457 3.76283 15.0322 3.54125 16.175 3.28454C16.2577 3.26596 16.3413 3.24719 16.4255 3.22799C17.5737 3.02258 20.3593 2.28939 22.3162 1C21.817 3.44921 20.3393 8.54673 18.4223 9.34312C17.607 9.65914 15.6967 10.2533 14.5784 10.1016C15.0111 12.0293 16.6452 16.0366 19.7203 16.6433C21.767 17.2912 26.9488 17.9517 31.3019 15.4108C34.6133 13.5621 41.6355 9.79819 43.233 9.53273C44.8138 9.09029 48.7442 8.55621 51.8193 9.95937C53.3835 10.7336 56.4287 13.1354 57.5103 15.9797C57.9429 17.1174 58.7883 20.2555 58.7084 23.7065L21.6672 23.1851C20.0699 23.1851 18.8716 23.8488 18.8716 23.8488C17.7736 24.3228 16.9247 25.3657 16.9247 25.3657C15.2607 23.6275 12.5816 19.5824 11.9326 15.9323C11.6377 14.2731 11.5732 11.3246 11.9326 10.5282ZM49.3732 15.3634C48.1751 15.2212 47.8756 17.0937 49.3732 17.307C50.3716 17.4492 51.0705 15.5649 49.3732 15.3634ZM60.8051 24.7494V27.4989L23.1149 26.9774C21.6672 26.9774 20.0398 27.7264 19.5206 30.3431V36.2686C19.5206 37.1219 20.2395 38.9612 23.1149 39.4921H60.8051V41.7201H64V43H15.0277V41.7201H19.92C18.7884 40.8826 16.5254 38.8758 16.5254 37.5485V29.4898C16.5586 28.0203 17.4241 24.6072 21.6672 24.3228L60.8051 24.7494Z" stroke="#476CB4" stroke-width="0.5" stroke-linecap="round"/>
<path d="M18.9 73.36H16.28L12.8 63.24L9.72 73.36H7.1L2.18 58.2H5.38L8.42 67.88L11.12 58.22H14.44L17.3 67.88L19.66 58.2H22.86L18.9 73.36ZM37.2563 73.36H34.2162V66.88H28.0963V73.36H25.0563V58.2H28.0963V64.28H34.2162V58.2H37.2563V73.36ZM54.2214 73.36H50.9814L49.6214 69.56H44.1214L42.7214 73.36H39.4814L45.0814 58.2H48.7614L54.2214 73.36ZM48.6814 66.96L46.9214 61.98L45.0814 66.96H48.6814ZM59.2672 70.76H65.6872V73.36H56.2272V58.2H59.2672V70.76ZM77.7734 60.8H70.4734V64.26H76.7134V66.86H70.4734V70.76H77.7734V73.36H67.4334V58.2H77.7734V60.8ZM84.7433 58.2H87.7833V64.3H90.9833C91.4766 64.3 91.9899 64.4133 92.5233 64.64C93.0699 64.8533 93.5566 65.1133 93.9833 65.42C94.5299 65.78 94.9766 66.2867 95.3233 66.94C95.6833 67.5933 95.8633 68.2533 95.8633 68.92C95.8633 69.7733 95.6833 70.54 95.3233 71.22C94.9766 71.8867 94.4833 72.4133 93.8433 72.8C93.2166 73.1733 92.5033 73.36 91.7033 73.36H84.7433V58.2ZM91.1433 70.76C91.6633 70.76 92.0699 70.6 92.3633 70.28C92.6699 69.9467 92.8233 69.4933 92.8233 68.92C92.8233 68.2933 92.6699 67.8 92.3633 67.44C92.0699 67.08 91.6633 66.9 91.1433 66.9H87.7833V70.76H91.1433ZM90.0033 64.3C90.4699 64.2867 90.8366 64.1333 91.1033 63.84C91.3833 63.5333 91.5233 63.1267 91.5233 62.62C91.5233 62.06 91.3833 61.62 91.1033 61.3C90.8233 60.9667 90.4366 60.8 89.9433 60.8H84.7433V58.2H90.3833C91.1833 58.2 91.8966 58.3733 92.5233 58.72C93.1633 59.0667 93.6566 59.5533 94.0033 60.18C94.3633 60.8067 94.5433 61.52 94.5433 62.32C94.5433 62.8533 94.3966 63.4133 94.1033 64C93.8233 64.5733 93.4566 65.0467 93.0033 65.42L90.0033 64.3ZM105.213 70.88C106.16 70.88 106.98 70.6733 107.673 70.26C108.38 69.8467 108.92 69.26 109.293 68.5C109.667 67.7267 109.853 66.82 109.853 65.78C109.853 64.74 109.667 63.84 109.293 63.08C108.92 62.3067 108.38 61.7133 107.673 61.3C106.98 60.8867 106.16 60.68 105.213 60.68C104.267 60.68 103.44 60.8867 102.733 61.3C102.04 61.7133 101.507 62.3067 101.133 63.08C100.76 63.84 100.573 64.74 100.573 65.78C100.573 66.82 100.76 67.7267 101.133 68.5C101.507 69.26 102.04 69.8467 102.733 70.26C103.44 70.6733 104.267 70.88 105.213 70.88ZM105.213 58.04C106.693 58.04 108.013 58.3733 109.173 59.04C110.347 59.6933 111.26 60.6067 111.913 61.78C112.567 62.9533 112.893 64.2867 112.893 65.78C112.893 67.2733 112.567 68.6067 111.913 69.78C111.26 70.9533 110.347 71.8733 109.173 72.54C108.013 73.1933 106.693 73.52 105.213 73.52C103.733 73.52 102.407 73.1933 101.233 72.54C100.073 71.8733 99.1668 70.9533 98.5134 69.78C97.8601 68.6067 97.5334 67.2733 97.5334 65.78C97.5334 64.2867 97.8601 62.9533 98.5134 61.78C99.1668 60.6067 100.073 59.6933 101.233 59.04C102.407 58.3733 103.733 58.04 105.213 58.04ZM122.284 70.88C123.23 70.88 124.05 70.6733 124.744 70.26C125.45 69.8467 125.99 69.26 126.364 68.5C126.737 67.7267 126.924 66.82 126.924 65.78C126.924 64.74 126.737 63.84 126.364 63.08C125.99 62.3067 125.45 61.7133 124.744 61.3C124.05 60.8867 123.23 60.68 122.284 60.68C121.337 60.68 120.51 60.8867 119.804 61.3C119.11 61.7133 118.577 62.3067 118.204 63.08C117.83 63.84 117.644 64.74 117.644 65.78C117.644 66.82 117.83 67.7267 118.204 68.5C118.577 69.26 119.11 69.8467 119.804 70.26C120.51 70.6733 121.337 70.88 122.284 70.88ZM122.284 58.04C123.764 58.04 125.084 58.3733 126.244 59.04C127.417 59.6933 128.33 60.6067 128.984 61.78C129.637 62.9533 129.964 64.2867 129.964 65.78C129.964 67.2733 129.637 68.6067 128.984 69.78C128.33 70.9533 127.417 71.8733 126.244 72.54C125.084 73.1933 123.764 73.52 122.284 73.52C120.804 73.52 119.477 73.1933 118.304 72.54C117.144 71.8733 116.237 70.9533 115.584 69.78C114.93 68.6067 114.604 67.2733 114.604 65.78C114.604 64.2867 114.93 62.9533 115.584 61.78C116.237 60.6067 117.144 59.6933 118.304 59.04C119.477 58.3733 120.804 58.04 122.284 58.04ZM139.185 64.96L145.225 73.36H141.485L137.105 67.28L135.225 69.36V73.36H132.185V58.22H135.225V64.86L141.105 58.18H145.145L139.185 64.96ZM148.373 68.62C148.853 69.5133 149.339 70.1267 149.833 70.46C150.339 70.7933 150.846 70.96 151.353 70.96C152.219 70.96 152.853 70.7933 153.253 70.46C153.666 70.1133 153.873 69.6467 153.873 69.06C153.873 68.7133 153.753 68.42 153.513 68.18C153.286 67.94 152.993 67.74 152.633 67.58C152.286 67.42 151.799 67.2333 151.173 67.02C150.213 66.6733 149.426 66.3467 148.813 66.04C148.213 65.72 147.693 65.26 147.253 64.66C146.813 64.0467 146.593 63.26 146.593 62.3C146.593 61.4333 146.806 60.68 147.233 60.04C147.659 59.4 148.253 58.9067 149.013 58.56C149.786 58.2133 150.673 58.04 151.673 58.04C152.273 58.04 152.893 58.1733 153.533 58.44C154.186 58.6933 154.786 59.1 155.333 59.66C155.893 60.2067 156.333 60.9 156.653 61.74L153.993 62.72C153.673 61.9333 153.306 61.3867 152.893 61.08C152.493 60.7733 152.086 60.62 151.673 60.62C151.233 60.62 150.853 60.6933 150.533 60.84C150.226 60.9867 149.993 61.1867 149.833 61.44C149.686 61.6933 149.613 61.98 149.613 62.3C149.613 62.6467 149.733 62.9467 149.973 63.2C150.213 63.4533 150.513 63.6667 150.873 63.84C151.246 64.0133 151.759 64.2267 152.413 64.48C153.359 64.8533 154.126 65.2 154.713 65.52C155.313 65.84 155.826 66.2933 156.253 66.88C156.679 67.4533 156.893 68.18 156.893 69.06C156.893 69.94 156.666 70.72 156.213 71.4C155.773 72.0667 155.133 72.5933 154.293 72.98C153.466 73.3533 152.486 73.54 151.353 73.54C150.246 73.54 149.226 73.2333 148.293 72.62C147.373 71.9933 146.579 71.1267 145.913 70.02L148.373 68.62Z" fill="#16325B"/>
</svg>
