<svg width="80" height="80" viewBox="0 0 80 80" fill="none" xmlns="http://www.w3.org/2000/svg">
<g clip-path="url(#clip0_624_10293)">
<rect width="80" height="80" rx="40" fill="#FAFAFA"/>
<path d="M40.1196 36.2748C43.9084 36.2748 47.5421 34.7853 50.2212 32.134C52.9003 29.4828 54.4053 25.8869 54.4053 22.1374C54.4053 18.3879 52.9003 14.792 50.2212 12.1407C47.5421 9.48947 43.9084 8 40.1196 8C36.3308 8 32.6972 9.48947 30.0181 12.1407C27.339 14.792 25.8339 18.3879 25.8339 22.1374C25.8339 25.8869 27.339 29.4828 30.0181 32.134C32.6972 34.7853 36.3308 36.2748 40.1196 36.2748ZM35.0192 41.5763C24.3027 39.3485 15.492 53.2308 13.3052 63.5C11.1185 73.7692 8.30651 86.5 11.3056 84L40.1198 87.5L68.3064 84C72.9932 85.5 68.8352 71.7308 66.3064 62.5C63.4932 52.2308 55.1888 39.2427 45.2201 41.5763C45.2201 41.5763 42.1221 42.0983 40.1196 42.0983C38.1172 42.0983 35.0192 41.5763 35.0192 41.5763Z" fill="#C0C0C0"/>
</g>
<defs>
<clipPath id="clip0_624_10293">
<rect width="80" height="80" rx="40" fill="white"/>
</clipPath>
</defs>
</svg>
