<svg width="231" height="44" viewBox="0 0 231 44" fill="none" xmlns="http://www.w3.org/2000/svg">
<path d="M60.8051 27.4989V24.7494L21.6672 24.3228C17.4241 24.6072 16.5586 28.0203 16.5254 29.4898V37.5485C16.5254 38.8758 18.7884 40.8826 19.92 41.7201H15.0277V43H64V41.7201H60.8051V39.4921H23.1149C20.2395 38.9612 19.5206 37.1219 19.5206 36.2686V30.3431C20.0398 27.7264 21.6672 26.9774 23.1149 26.9774L60.8051 27.4989Z" fill="#99BFEC"/>
<path fill-rule="evenodd" clip-rule="evenodd" d="M11.9326 10.5282C11.4834 10.7969 10.2853 11.3436 9.08716 11.3815C8.10539 11.3499 5.7225 10.7558 4.04517 8.63207C3.47116 7.92845 2.55687 6.87674 1.86867 6.0851C1.45957 5.61451 1.13035 5.23582 1 5.07677C1 5.07677 1.54932 5.26638 2.84707 5.4086C3.44631 5.50339 4.72409 5.41808 5.44295 5.26638C6.64105 4.87135 9.08736 4.4605 9.83598 4.74494C10.4017 4.93455 11.8029 5.92053 12.8811 8.34763C12.8899 8.27327 12.8974 8.13984 12.9072 7.96519C12.9538 7.1379 13.0524 5.38553 13.58 4.60271C14.0457 3.76283 15.0322 3.54125 16.175 3.28454C16.2577 3.26596 16.3413 3.24719 16.4255 3.22799C17.5737 3.02258 20.3593 2.28939 22.3162 1C21.817 3.44921 20.3393 8.54673 18.4223 9.34312C17.607 9.65914 15.6967 10.2533 14.5784 10.1016C15.0111 12.0293 16.6452 16.0366 19.7203 16.6433C21.767 17.2912 26.9488 17.9517 31.3019 15.4108C34.6133 13.5621 41.6355 9.79819 43.233 9.53273C44.8138 9.09029 48.7442 8.55621 51.8193 9.95937C53.3835 10.7336 56.4287 13.1354 57.5103 15.9797C57.9429 17.1174 58.7883 20.2555 58.7084 23.7065L21.6672 23.1851C20.0699 23.1851 18.8716 23.8488 18.8716 23.8488C17.7736 24.3228 16.9247 25.3657 16.9247 25.3657C15.2607 23.6275 12.5816 19.5824 11.9326 15.9323C11.6377 14.2731 11.5732 11.3246 11.9326 10.5282ZM49.3732 15.3634C48.1751 15.2212 47.8756 17.0937 49.3732 17.307C50.3716 17.4492 51.0705 15.5649 49.3732 15.3634Z" fill="#99BFEC"/>
<path d="M22.3661 28.7788L58.958 29.3002M22.2163 31.7652L58.8582 32.1919M58.8582 34.9413L22.1664 34.6095M22.1664 37.5485H58.958M11.9326 10.5282C11.4834 10.7969 10.2853 11.3436 9.08716 11.3815C8.10539 11.3499 5.7225 10.7558 4.04517 8.63207C3.47116 7.92845 2.55687 6.87674 1.86867 6.0851C1.45957 5.61451 1.13035 5.23582 1 5.07677C1 5.07677 1.54932 5.26638 2.84707 5.4086C3.44631 5.50339 4.72409 5.41808 5.44295 5.26638C6.64105 4.87135 9.08736 4.4605 9.83598 4.74494C10.4017 4.93455 11.8029 5.92053 12.8811 8.34763C12.8899 8.27327 12.8974 8.13984 12.9072 7.96519C12.9538 7.1379 13.0524 5.38553 13.58 4.60271C14.0457 3.76283 15.0322 3.54125 16.175 3.28454C16.2577 3.26596 16.3413 3.24719 16.4255 3.22799C17.5737 3.02258 20.3593 2.28939 22.3162 1C21.817 3.44921 20.3393 8.54673 18.4223 9.34312C17.607 9.65914 15.6967 10.2533 14.5784 10.1016C15.0111 12.0293 16.6452 16.0366 19.7203 16.6433C21.767 17.2912 26.9488 17.9517 31.3019 15.4108C34.6133 13.5621 41.6355 9.79819 43.233 9.53273C44.8138 9.09029 48.7442 8.55621 51.8193 9.95937C53.3835 10.7336 56.4287 13.1354 57.5103 15.9797C57.9429 17.1174 58.7883 20.2555 58.7084 23.7065L21.6672 23.1851C20.0699 23.1851 18.8716 23.8488 18.8716 23.8488C17.7736 24.3228 16.9247 25.3657 16.9247 25.3657C15.2607 23.6275 12.5816 19.5824 11.9326 15.9323C11.6377 14.2731 11.5732 11.3246 11.9326 10.5282ZM49.3732 15.3634C48.1751 15.2212 47.8756 17.0937 49.3732 17.307C50.3716 17.4492 51.0705 15.5649 49.3732 15.3634ZM60.8051 24.7494V27.4989L23.1149 26.9774C21.6672 26.9774 20.0398 27.7264 19.5206 30.3431V36.2686C19.5206 37.1219 20.2395 38.9612 23.1149 39.4921H60.8051V41.7201H64V43H15.0277V41.7201H19.92C18.7884 40.8826 16.5254 38.8758 16.5254 37.5485V29.4898C16.5586 28.0203 17.4241 24.6072 21.6672 24.3228L60.8051 24.7494Z" stroke="#476CB4" stroke-width="0.5" stroke-linecap="round"/>
<path d="M91.9 38.36H89.28L85.8 28.24L82.72 38.36H80.1L75.18 23.2H78.38L81.42 32.88L84.12 23.22H87.44L90.3 32.88L92.66 23.2H95.86L91.9 38.36ZM110.256 38.36H107.216V31.88H101.096V38.36H98.0563V23.2H101.096V29.28H107.216V23.2H110.256V38.36ZM127.221 38.36H123.981L122.621 34.56H117.121L115.721 38.36H112.481L118.081 23.2H121.761L127.221 38.36ZM121.681 31.96L119.921 26.98L118.081 31.96H121.681ZM132.267 35.76H138.687V38.36H129.227V23.2H132.267V35.76ZM150.773 25.8H143.473V29.26H149.713V31.86H143.473V35.76H150.773V38.36H140.433V23.2H150.773V25.8ZM157.743 23.2H160.783V29.3H163.983C164.477 29.3 164.99 29.4133 165.523 29.64C166.07 29.8533 166.557 30.1133 166.983 30.42C167.53 30.78 167.977 31.2867 168.323 31.94C168.683 32.5933 168.863 33.2533 168.863 33.92C168.863 34.7733 168.683 35.54 168.323 36.22C167.977 36.8867 167.483 37.4133 166.843 37.8C166.217 38.1733 165.503 38.36 164.703 38.36H157.743V23.2ZM164.143 35.76C164.663 35.76 165.07 35.6 165.363 35.28C165.67 34.9467 165.823 34.4933 165.823 33.92C165.823 33.2933 165.67 32.8 165.363 32.44C165.07 32.08 164.663 31.9 164.143 31.9H160.783V35.76H164.143ZM163.003 29.3C163.47 29.2867 163.837 29.1333 164.103 28.84C164.383 28.5333 164.523 28.1267 164.523 27.62C164.523 27.06 164.383 26.62 164.103 26.3C163.823 25.9667 163.437 25.8 162.943 25.8H157.743V23.2H163.383C164.183 23.2 164.897 23.3733 165.523 23.72C166.163 24.0667 166.657 24.5533 167.003 25.18C167.363 25.8067 167.543 26.52 167.543 27.32C167.543 27.8533 167.397 28.4133 167.103 29C166.823 29.5733 166.457 30.0467 166.003 30.42L163.003 29.3ZM178.213 35.88C179.16 35.88 179.98 35.6733 180.673 35.26C181.38 34.8467 181.92 34.26 182.293 33.5C182.667 32.7267 182.853 31.82 182.853 30.78C182.853 29.74 182.667 28.84 182.293 28.08C181.92 27.3067 181.38 26.7133 180.673 26.3C179.98 25.8867 179.16 25.68 178.213 25.68C177.267 25.68 176.44 25.8867 175.733 26.3C175.04 26.7133 174.507 27.3067 174.133 28.08C173.76 28.84 173.573 29.74 173.573 30.78C173.573 31.82 173.76 32.7267 174.133 33.5C174.507 34.26 175.04 34.8467 175.733 35.26C176.44 35.6733 177.267 35.88 178.213 35.88ZM178.213 23.04C179.693 23.04 181.013 23.3733 182.173 24.04C183.347 24.6933 184.26 25.6067 184.913 26.78C185.567 27.9533 185.893 29.2867 185.893 30.78C185.893 32.2733 185.567 33.6067 184.913 34.78C184.26 35.9533 183.347 36.8733 182.173 37.54C181.013 38.1933 179.693 38.52 178.213 38.52C176.733 38.52 175.407 38.1933 174.233 37.54C173.073 36.8733 172.167 35.9533 171.513 34.78C170.86 33.6067 170.533 32.2733 170.533 30.78C170.533 29.2867 170.86 27.9533 171.513 26.78C172.167 25.6067 173.073 24.6933 174.233 24.04C175.407 23.3733 176.733 23.04 178.213 23.04ZM195.284 35.88C196.23 35.88 197.05 35.6733 197.744 35.26C198.45 34.8467 198.99 34.26 199.364 33.5C199.737 32.7267 199.924 31.82 199.924 30.78C199.924 29.74 199.737 28.84 199.364 28.08C198.99 27.3067 198.45 26.7133 197.744 26.3C197.05 25.8867 196.23 25.68 195.284 25.68C194.337 25.68 193.51 25.8867 192.804 26.3C192.11 26.7133 191.577 27.3067 191.204 28.08C190.83 28.84 190.644 29.74 190.644 30.78C190.644 31.82 190.83 32.7267 191.204 33.5C191.577 34.26 192.11 34.8467 192.804 35.26C193.51 35.6733 194.337 35.88 195.284 35.88ZM195.284 23.04C196.764 23.04 198.084 23.3733 199.244 24.04C200.417 24.6933 201.33 25.6067 201.984 26.78C202.637 27.9533 202.964 29.2867 202.964 30.78C202.964 32.2733 202.637 33.6067 201.984 34.78C201.33 35.9533 200.417 36.8733 199.244 37.54C198.084 38.1933 196.764 38.52 195.284 38.52C193.804 38.52 192.477 38.1933 191.304 37.54C190.144 36.8733 189.237 35.9533 188.584 34.78C187.93 33.6067 187.604 32.2733 187.604 30.78C187.604 29.2867 187.93 27.9533 188.584 26.78C189.237 25.6067 190.144 24.6933 191.304 24.04C192.477 23.3733 193.804 23.04 195.284 23.04ZM212.185 29.96L218.225 38.36H214.485L210.105 32.28L208.225 34.36V38.36H205.185V23.22H208.225V29.86L214.105 23.18H218.145L212.185 29.96ZM221.373 33.62C221.853 34.5133 222.339 35.1267 222.833 35.46C223.339 35.7933 223.846 35.96 224.353 35.96C225.219 35.96 225.853 35.7933 226.253 35.46C226.666 35.1133 226.873 34.6467 226.873 34.06C226.873 33.7133 226.753 33.42 226.513 33.18C226.286 32.94 225.993 32.74 225.633 32.58C225.286 32.42 224.799 32.2333 224.173 32.02C223.213 31.6733 222.426 31.3467 221.813 31.04C221.213 30.72 220.693 30.26 220.253 29.66C219.813 29.0467 219.593 28.26 219.593 27.3C219.593 26.4333 219.806 25.68 220.233 25.04C220.659 24.4 221.253 23.9067 222.013 23.56C222.786 23.2133 223.673 23.04 224.673 23.04C225.273 23.04 225.893 23.1733 226.533 23.44C227.186 23.6933 227.786 24.1 228.333 24.66C228.893 25.2067 229.333 25.9 229.653 26.74L226.993 27.72C226.673 26.9333 226.306 26.3867 225.893 26.08C225.493 25.7733 225.086 25.62 224.673 25.62C224.233 25.62 223.853 25.6933 223.533 25.84C223.226 25.9867 222.993 26.1867 222.833 26.44C222.686 26.6933 222.613 26.98 222.613 27.3C222.613 27.6467 222.733 27.9467 222.973 28.2C223.213 28.4533 223.513 28.6667 223.873 28.84C224.246 29.0133 224.759 29.2267 225.413 29.48C226.359 29.8533 227.126 30.2 227.713 30.52C228.313 30.84 228.826 31.2933 229.253 31.88C229.679 32.4533 229.893 33.18 229.893 34.06C229.893 34.94 229.666 35.72 229.213 36.4C228.773 37.0667 228.133 37.5933 227.293 37.98C226.466 38.3533 225.486 38.54 224.353 38.54C223.246 38.54 222.226 38.2333 221.293 37.62C220.373 36.9933 219.579 36.1267 218.913 35.02L221.373 33.62Z" fill="#16325B"/>
</svg>
