<svg width="284" height="47" viewBox="0 0 284 47" fill="none" xmlns="http://www.w3.org/2000/svg">
<path d="M65.6224 29.8916V26.9458L23.9864 26.4887C19.4725 26.7935 18.5517 30.4503 18.5163 32.0248V40.6591C18.5163 42.0813 20.9239 44.2314 22.1276 45.1287H16.9231V46.5H69.0213V45.1287H65.6224V42.7415H25.5265C22.4675 42.1727 21.7028 40.202 21.7028 39.2878V32.9391C22.2551 30.1354 23.9864 29.333 25.5265 29.333L65.6224 29.8916Z" fill="#845EC2"/>
<path fill-rule="evenodd" clip-rule="evenodd" d="M13.6305 11.7088C13.1525 11.9966 11.8779 12.5824 10.6034 12.623C9.55893 12.5892 7.02394 11.9526 5.23954 9.67722C4.6289 8.92333 3.65625 7.79651 2.92411 6.94832C2.4889 6.44412 2.13867 6.03838 2 5.86797C2 5.86797 2.58439 6.07113 3.96497 6.2235C4.60246 6.32506 5.9618 6.23365 6.72654 6.07113C8.00111 5.64788 10.6036 5.20768 11.4 5.51244C12.0019 5.71558 13.4924 6.772 14.6395 9.37246C14.6488 9.29278 14.6568 9.14983 14.6673 8.96271C14.7168 8.07632 14.8217 6.19879 15.383 5.36005C15.8784 4.46017 16.9278 4.22277 18.1436 3.94772C18.2316 3.92781 18.3205 3.90771 18.4101 3.88714C19.6316 3.66705 22.595 2.88149 24.6768 1.5C24.1457 4.12415 22.5737 9.58578 20.5344 10.4391C19.667 10.7777 17.6348 11.4142 16.4452 11.2517C16.9054 13.3172 18.6438 17.6106 21.9152 18.2607C24.0926 18.9549 29.6051 19.6625 34.2361 16.9402C37.7589 14.9594 45.2293 10.9266 46.9287 10.6422C48.6104 10.1682 52.7917 9.59594 56.0631 11.0993C57.7272 11.9289 60.9667 14.5023 62.1173 17.5497C62.5776 18.7686 63.4769 22.1309 63.3919 25.8284L23.9864 25.2698C22.2872 25.2698 21.0124 25.9808 21.0124 25.9808C19.8442 26.4887 18.9412 27.6061 18.9412 27.6061C17.171 25.7438 14.3209 21.4097 13.6305 17.4989C13.3167 15.7212 13.2481 12.5621 13.6305 11.7088ZM53.4609 16.8894C52.1863 16.737 51.8677 18.7432 53.4609 18.9718C54.523 19.1242 55.2665 17.1052 53.4609 16.8894Z" fill="#845EC2"/>
<path d="M24.7299 31.263L63.6575 31.8217M24.5706 34.4628L63.5512 34.9199M63.5512 37.8657L24.5175 37.5102M24.5175 40.6591H63.6575M13.6305 11.7088C13.1525 11.9966 11.8779 12.5824 10.6034 12.623C9.55893 12.5892 7.02394 11.9526 5.23954 9.67722C4.6289 8.92333 3.65625 7.79651 2.92411 6.94832C2.4889 6.44412 2.13867 6.03838 2 5.86797C2 5.86797 2.58439 6.07113 3.96497 6.2235C4.60246 6.32506 5.9618 6.23365 6.72654 6.07113C8.00111 5.64788 10.6036 5.20768 11.4 5.51244C12.0019 5.71558 13.4924 6.772 14.6395 9.37246C14.6488 9.29278 14.6568 9.14983 14.6673 8.96271C14.7168 8.07632 14.8217 6.19879 15.383 5.36005C15.8784 4.46017 16.9278 4.22277 18.1436 3.94772C18.2316 3.92781 18.3205 3.90771 18.4101 3.88714C19.6316 3.66705 22.595 2.88149 24.6768 1.5C24.1457 4.12415 22.5737 9.58578 20.5344 10.4391C19.667 10.7777 17.6348 11.4142 16.4452 11.2517C16.9054 13.3172 18.6438 17.6106 21.9152 18.2607C24.0926 18.9549 29.6051 19.6625 34.2361 16.9402C37.7589 14.9594 45.2293 10.9266 46.9287 10.6422C48.6104 10.1682 52.7917 9.59594 56.0631 11.0993C57.7272 11.9289 60.9667 14.5023 62.1173 17.5497C62.5776 18.7686 63.4769 22.1309 63.3919 25.8284L23.9864 25.2698C22.2872 25.2698 21.0124 25.9808 21.0124 25.9808C19.8442 26.4887 18.9412 27.6061 18.9412 27.6061C17.171 25.7438 14.3209 21.4097 13.6305 17.4989C13.3167 15.7212 13.2481 12.5621 13.6305 11.7088ZM53.4609 16.8894C52.1863 16.737 51.8677 18.7432 53.4609 18.9718C54.523 19.1242 55.2665 17.1052 53.4609 16.8894ZM65.6224 26.9458V29.8916L25.5265 29.333C23.9864 29.333 22.2551 30.1354 21.7028 32.9391V39.2878C21.7028 40.202 22.4675 42.1727 25.5265 42.7415H65.6224V45.1287H69.0213V46.5H16.9231V45.1287H22.1276C20.9239 44.2314 18.5163 42.0813 18.5163 40.6591V32.0248C18.5517 30.4503 19.4725 26.7935 23.9864 26.4887L65.6224 26.9458Z" stroke="#845EC2" stroke-linecap="round"/>
<path d="M104.459 39.838H101.469L96.9455 26.032L92.8375 39.838H89.8215L83.7115 20.39H87.2215L91.3295 33.806L95.1255 20.416H98.7395L102.691 33.806L106.175 20.39H109.685L104.459 39.838ZM128.051 39.838H124.697V31.284H116.195V39.838H112.841V20.39H116.195V28.398H124.697V20.39H128.051V39.838ZM149.52 39.838H145.958L144.112 34.742H136.598L134.674 39.838H131.112L138.366 20.39H142.422L149.52 39.838ZM143.046 31.856L140.394 24.576L137.664 31.856H143.046ZM155.778 36.926H164.28V39.838H152.424V20.39H155.778V36.926ZM179.914 23.276H170.346V28.372H178.536V31.258H170.346V36.926H179.914V39.838H166.992V20.39H179.914V23.276ZM189.266 20.39H192.62V28.398H197.04C197.699 28.398 198.332 28.5193 198.938 28.762C199.545 29.0047 200.117 29.308 200.654 29.672C201.365 30.14 201.946 30.7987 202.396 31.648C202.864 32.4973 203.098 33.3553 203.098 34.222C203.098 35.2967 202.873 36.2587 202.422 37.108C201.972 37.9573 201.339 38.6247 200.524 39.11C199.71 39.5953 198.791 39.838 197.768 39.838H189.266V20.39ZM197.248 36.926C198.011 36.926 198.618 36.6833 199.068 36.198C199.536 35.7127 199.77 35.054 199.77 34.222C199.77 33.338 199.536 32.6273 199.068 32.09C198.618 31.5527 198.011 31.284 197.248 31.284H192.62V36.926H197.248ZM195.896 28.398C196.572 28.3807 197.11 28.1467 197.508 27.696C197.924 27.2453 198.132 26.656 198.132 25.928C198.132 25.1307 197.916 24.4893 197.482 24.004C197.049 23.5187 196.46 23.276 195.714 23.276H189.266V20.39H196.13C197.153 20.39 198.063 20.6153 198.86 21.066C199.675 21.4993 200.308 22.1233 200.758 22.938C201.226 23.7353 201.46 24.6453 201.46 25.668C201.46 26.3613 201.27 27.0807 200.888 27.826C200.524 28.554 200.048 29.1607 199.458 29.646L195.896 28.398ZM215.39 37.108C216.672 37.108 217.799 36.822 218.77 36.25C219.74 35.678 220.486 34.8633 221.006 33.806C221.543 32.7487 221.812 31.518 221.812 30.114C221.812 28.71 221.543 27.4793 221.006 26.422C220.486 25.3647 219.74 24.55 218.77 23.978C217.799 23.3887 216.672 23.094 215.39 23.094C214.107 23.094 212.98 23.3887 212.01 23.978C211.056 24.55 210.311 25.3647 209.774 26.422C209.254 27.4793 208.994 28.71 208.994 30.114C208.994 31.518 209.254 32.7487 209.774 33.806C210.311 34.8633 211.056 35.678 212.01 36.25C212.98 36.822 214.107 37.108 215.39 37.108ZM215.39 20.182C217.279 20.182 218.96 20.6067 220.434 21.456C221.924 22.288 223.086 23.458 223.918 24.966C224.75 26.474 225.166 28.19 225.166 30.114C225.166 32.0207 224.75 33.7367 223.918 35.262C223.086 36.77 221.924 37.9487 220.434 38.798C218.96 39.63 217.279 40.046 215.39 40.046C213.518 40.046 211.836 39.63 210.346 38.798C208.855 37.9487 207.694 36.77 206.862 35.262C206.047 33.754 205.64 32.038 205.64 30.114C205.64 28.19 206.047 26.474 206.862 24.966C207.694 23.458 208.846 22.288 210.32 21.456C211.81 20.6067 213.5 20.182 215.39 20.182ZM237.327 37.108C238.61 37.108 239.737 36.822 240.707 36.25C241.678 35.678 242.423 34.8633 242.943 33.806C243.481 32.7487 243.749 31.518 243.749 30.114C243.749 28.71 243.481 27.4793 242.943 26.422C242.423 25.3647 241.678 24.55 240.707 23.978C239.737 23.3887 238.61 23.094 237.327 23.094C236.045 23.094 234.918 23.3887 233.947 23.978C232.994 24.55 232.249 25.3647 231.711 26.422C231.191 27.4793 230.931 28.71 230.931 30.114C230.931 31.518 231.191 32.7487 231.711 33.806C232.249 34.8633 232.994 35.678 233.947 36.25C234.918 36.822 236.045 37.108 237.327 37.108ZM237.327 20.182C239.217 20.182 240.898 20.6067 242.371 21.456C243.862 22.288 245.023 23.458 245.855 24.966C246.687 26.474 247.103 28.19 247.103 30.114C247.103 32.0207 246.687 33.7367 245.855 35.262C245.023 36.77 243.862 37.9487 242.371 38.798C240.898 39.63 239.217 40.046 237.327 40.046C235.455 40.046 233.774 39.63 232.283 38.798C230.793 37.9487 229.631 36.77 228.799 35.262C227.985 33.754 227.577 32.038 227.577 30.114C227.577 28.19 227.985 26.474 228.799 24.966C229.631 23.458 230.784 22.288 232.257 21.456C233.748 20.6067 235.438 20.182 237.327 20.182ZM258.239 29.048L266.039 39.838H261.879L255.925 31.622L253.533 34.274V39.838H250.179V20.416H253.533V29.282L261.437 20.364H265.909L258.239 29.048ZM269.943 34.014C270.532 35.1407 271.173 35.9553 271.867 36.458C272.577 36.9433 273.314 37.186 274.077 37.186C275.238 37.186 276.122 36.9433 276.729 36.458C277.335 35.9553 277.639 35.2793 277.639 34.43C277.639 33.91 277.474 33.468 277.145 33.104C276.815 32.74 276.399 32.4453 275.897 32.22C275.411 31.9773 274.727 31.7 273.843 31.388C272.629 30.9547 271.633 30.5387 270.853 30.14C270.09 29.724 269.431 29.1433 268.877 28.398C268.339 27.6353 268.071 26.656 268.071 25.46C268.071 24.368 268.339 23.432 268.877 22.652C269.431 21.8547 270.185 21.2393 271.139 20.806C272.109 20.3727 273.219 20.1647 274.467 20.182C275.281 20.182 276.087 20.3467 276.885 20.676C277.682 21.0053 278.41 21.5167 279.069 22.21C279.745 22.886 280.273 23.744 280.655 24.784L277.691 25.85C277.309 24.862 276.833 24.1513 276.261 23.718C275.706 23.2847 275.099 23.0593 274.441 23.042C273.817 23.042 273.271 23.146 272.803 23.354C272.352 23.562 272.005 23.848 271.763 24.212C271.537 24.5587 271.425 24.9747 271.425 25.46C271.425 25.98 271.589 26.4307 271.919 26.812C272.248 27.176 272.664 27.488 273.167 27.748C273.687 27.9907 274.389 28.2767 275.273 28.606C276.486 29.0913 277.465 29.542 278.211 29.958C278.973 30.3567 279.623 30.9287 280.161 31.674C280.698 32.402 280.967 33.3293 280.967 34.456C280.967 35.5653 280.681 36.5447 280.109 37.394C279.554 38.226 278.757 38.8847 277.717 39.37C276.677 39.838 275.455 40.0633 274.051 40.046C272.647 40.046 271.364 39.656 270.203 38.876C269.041 38.096 268.045 36.9953 267.213 35.574L269.943 34.014Z" fill="#4B4453"/>
</svg>
