<svg width="311" height="57" viewBox="0 0 311 57" fill="none" xmlns="http://www.w3.org/2000/svg">
<path d="M77.4429 36.07V32.535L27.7441 31.9865C22.356 32.3521 21.257 36.7404 21.2147 38.6298V48.991C21.2147 50.6975 24.0885 53.2777 25.5254 54.3544H19.313V56H81.5V54.3544H77.4429V51.4898H29.5824C25.9311 50.8072 25.0182 48.4424 25.0182 47.3454V39.7269C25.6775 36.3625 27.7441 35.3996 29.5824 35.3996L77.4429 36.07Z" fill="#845EC2"/>
<path fill-rule="evenodd" clip-rule="evenodd" d="M15.3827 14.2506C14.8122 14.596 13.2908 15.2989 11.7694 15.3477C10.5227 15.307 7.49683 14.5431 5.36688 11.8127C4.63799 10.908 3.47698 9.55581 2.60307 8.53799C2.08358 7.93294 1.66553 7.44606 1.5 7.24156C1.5 7.24156 2.19755 7.48535 3.84548 7.6682C4.60643 7.79007 6.229 7.68039 7.14184 7.48535C8.66323 6.97745 11.7697 6.44921 12.7203 6.81492C13.4387 7.0587 15.2179 8.3264 16.5872 11.447C16.5983 11.3513 16.6078 11.1798 16.6203 10.9553C16.6794 9.89159 16.8047 7.63854 17.4746 6.63206C18.066 5.55221 19.3186 5.26733 20.7699 4.93727C20.8749 4.91338 20.981 4.88925 21.088 4.86456C22.546 4.60045 26.0832 3.65779 28.5681 2C27.9342 5.14898 26.0578 11.7029 23.6236 12.7269C22.5882 13.1332 20.1624 13.8971 18.7425 13.702C19.2919 16.1806 21.3669 21.3327 25.2718 22.1129C27.8708 22.9458 34.4509 23.795 39.9786 20.5282C44.1836 18.1512 53.1006 13.312 55.1292 12.9707C57.1366 12.4018 62.1276 11.7151 66.0325 13.5192C68.0188 14.5147 71.8856 17.6027 73.2591 21.2596C73.8085 22.7223 74.8819 26.7571 74.7805 31.1941L27.7441 30.5237C25.7158 30.5237 24.1941 31.377 24.1941 31.377C22.7998 31.9865 21.7219 33.3273 21.7219 33.3273C19.6088 31.0926 16.2068 25.8916 15.3827 21.1986C15.0081 19.0655 14.9263 15.2745 15.3827 14.2506ZM62.9263 20.4673C61.4049 20.2844 61.0246 22.6919 62.9263 22.9661C64.1941 23.149 65.0816 20.7263 62.9263 20.4673Z" fill="#845EC2"/>
<path d="M28.6315 37.7156L75.0975 38.386M28.4414 41.5553L74.9707 42.1038M74.9707 45.6388L28.378 45.2122M28.378 48.991H75.0975M15.3827 14.2506C14.8122 14.596 13.2908 15.2989 11.7694 15.3477C10.5227 15.307 7.49683 14.5431 5.36688 11.8127C4.63799 10.908 3.47698 9.55581 2.60307 8.53799C2.08358 7.93294 1.66553 7.44606 1.5 7.24156C1.5 7.24156 2.19755 7.48535 3.84548 7.6682C4.60643 7.79007 6.229 7.68039 7.14184 7.48535C8.66323 6.97745 11.7697 6.44921 12.7203 6.81492C13.4387 7.0587 15.2179 8.3264 16.5872 11.447C16.5983 11.3513 16.6078 11.1798 16.6203 10.9553C16.6794 9.89159 16.8047 7.63854 17.4746 6.63206C18.066 5.55221 19.3186 5.26733 20.7699 4.93727C20.8749 4.91338 20.981 4.88925 21.088 4.86456C22.546 4.60045 26.0832 3.65779 28.5681 2C27.9342 5.14898 26.0578 11.7029 23.6236 12.7269C22.5882 13.1332 20.1624 13.8971 18.7425 13.702C19.2919 16.1806 21.3669 21.3327 25.2718 22.1129C27.8708 22.9458 34.4509 23.795 39.9786 20.5282C44.1836 18.1512 53.1006 13.312 55.1292 12.9707C57.1366 12.4018 62.1276 11.7151 66.0325 13.5192C68.0188 14.5147 71.8856 17.6027 73.2591 21.2596C73.8085 22.7223 74.8819 26.7571 74.7805 31.1941L27.7441 30.5237C25.7158 30.5237 24.1941 31.377 24.1941 31.377C22.7998 31.9865 21.7219 33.3273 21.7219 33.3273C19.6088 31.0926 16.2068 25.8916 15.3827 21.1986C15.0081 19.0655 14.9263 15.2745 15.3827 14.2506ZM62.9263 20.4673C61.4049 20.2844 61.0246 22.6919 62.9263 22.9661C64.1941 23.149 65.0816 20.7263 62.9263 20.4673ZM77.4429 32.535V36.07L29.5824 35.3996C27.7441 35.3996 25.6775 36.3625 25.0182 39.7269V47.3454C25.0182 48.4424 25.9311 50.8072 29.5824 51.4898H77.4429V54.3544H81.5V56H19.313V54.3544H25.5254C24.0885 53.2777 21.2147 50.6975 21.2147 48.991V38.6298C21.257 36.7404 22.356 32.3521 27.7441 31.9865L77.4429 32.535Z" stroke="#845EC2" stroke-linecap="round"/>
<path d="M118.664 49.364H115.444L110.572 34.496L106.148 49.364H102.9L96.32 28.42H100.1L104.524 42.868L108.612 28.448H112.504L116.76 42.868L120.512 28.42H124.292L118.664 49.364ZM144.071 49.364H140.459V40.152H131.303V49.364H127.691V28.42H131.303V37.044H140.459V28.42H144.071V49.364ZM167.19 49.364H163.354L161.366 43.876H153.274L151.202 49.364H147.366L155.178 28.42H159.546L167.19 49.364ZM160.218 40.768L157.362 32.928L154.422 40.768H160.218ZM173.93 46.228H183.086V49.364H170.318V28.42H173.93V46.228ZM199.923 31.528H189.619V37.016H198.439V40.124H189.619V46.228H199.923V49.364H186.007V28.42H199.923V31.528ZM209.995 28.42H213.607V37.044H218.367C219.076 37.044 219.757 37.1747 220.411 37.436C221.064 37.6973 221.68 38.024 222.259 38.416C223.024 38.92 223.649 39.6293 224.135 40.544C224.639 41.4587 224.891 42.3827 224.891 43.316C224.891 44.4733 224.648 45.5093 224.163 46.424C223.677 47.3387 222.996 48.0573 222.119 48.58C221.241 49.1027 220.252 49.364 219.151 49.364H209.995V28.42ZM218.591 46.228C219.412 46.228 220.065 45.9667 220.551 45.444C221.055 44.9213 221.307 44.212 221.307 43.316C221.307 42.364 221.055 41.5987 220.551 41.02C220.065 40.4413 219.412 40.152 218.591 40.152H213.607V46.228H218.591ZM217.135 37.044C217.863 37.0253 218.441 36.7733 218.871 36.288C219.319 35.8027 219.543 35.168 219.543 34.384C219.543 33.5253 219.309 32.8347 218.843 32.312C218.376 31.7893 217.741 31.528 216.939 31.528H209.995V28.42H217.387C218.488 28.42 219.468 28.6627 220.327 29.148C221.204 29.6147 221.885 30.2867 222.371 31.164C222.875 32.0227 223.127 33.0027 223.127 34.104C223.127 34.8507 222.921 35.6253 222.511 36.428C222.119 37.212 221.605 37.8653 220.971 38.388L217.135 37.044ZM238.127 46.424C239.509 46.424 240.722 46.116 241.767 45.5C242.813 44.884 243.615 44.0067 244.175 42.868C244.754 41.7293 245.043 40.404 245.043 38.892C245.043 37.38 244.754 36.0547 244.175 34.916C243.615 33.7773 242.813 32.9 241.767 32.284C240.722 31.6493 239.509 31.332 238.127 31.332C236.746 31.332 235.533 31.6493 234.487 32.284C233.461 32.9 232.658 33.7773 232.079 34.916C231.519 36.0547 231.239 37.38 231.239 38.892C231.239 40.404 231.519 41.7293 232.079 42.868C232.658 44.0067 233.461 44.884 234.487 45.5C235.533 46.116 236.746 46.424 238.127 46.424ZM238.127 28.196C240.162 28.196 241.973 28.6533 243.559 29.568C245.165 30.464 246.415 31.724 247.311 33.348C248.207 34.972 248.655 36.82 248.655 38.892C248.655 40.9453 248.207 42.7933 247.311 44.436C246.415 46.06 245.165 47.3293 243.559 48.244C241.973 49.14 240.162 49.588 238.127 49.588C236.111 49.588 234.301 49.14 232.695 48.244C231.09 47.3293 229.839 46.06 228.943 44.436C228.066 42.812 227.627 40.964 227.627 38.892C227.627 36.82 228.066 34.972 228.943 33.348C229.839 31.724 231.081 30.464 232.667 29.568C234.273 28.6533 236.093 28.196 238.127 28.196ZM261.752 46.424C263.134 46.424 264.347 46.116 265.392 45.5C266.438 44.884 267.24 44.0067 267.8 42.868C268.379 41.7293 268.668 40.404 268.668 38.892C268.668 37.38 268.379 36.0547 267.8 34.916C267.24 33.7773 266.438 32.9 265.392 32.284C264.347 31.6493 263.134 31.332 261.752 31.332C260.371 31.332 259.158 31.6493 258.112 32.284C257.086 32.9 256.283 33.7773 255.704 34.916C255.144 36.0547 254.864 37.38 254.864 38.892C254.864 40.404 255.144 41.7293 255.704 42.868C256.283 44.0067 257.086 44.884 258.112 45.5C259.158 46.116 260.371 46.424 261.752 46.424ZM261.752 28.196C263.787 28.196 265.598 28.6533 267.184 29.568C268.79 30.464 270.04 31.724 270.936 33.348C271.832 34.972 272.28 36.82 272.28 38.892C272.28 40.9453 271.832 42.7933 270.936 44.436C270.04 46.06 268.79 47.3293 267.184 48.244C265.598 49.14 263.787 49.588 261.752 49.588C259.736 49.588 257.926 49.14 256.32 48.244C254.715 47.3293 253.464 46.06 252.568 44.436C251.691 42.812 251.252 40.964 251.252 38.892C251.252 36.82 251.691 34.972 252.568 33.348C253.464 31.724 254.706 30.464 256.292 29.568C257.898 28.6533 259.718 28.196 261.752 28.196ZM284.272 37.744L292.672 49.364H288.192L281.78 40.516L279.204 43.372V49.364H275.592V28.448H279.204V37.996L287.716 28.392H292.532L284.272 37.744ZM296.877 43.092C297.511 44.3053 298.202 45.1827 298.949 45.724C299.714 46.2467 300.507 46.508 301.329 46.508C302.579 46.508 303.531 46.2467 304.185 45.724C304.838 45.1827 305.165 44.4547 305.165 43.54C305.165 42.98 304.987 42.504 304.633 42.112C304.278 41.72 303.83 41.4027 303.289 41.16C302.766 40.8987 302.029 40.6 301.077 40.264C299.77 39.7973 298.697 39.3493 297.857 38.92C297.035 38.472 296.326 37.8467 295.729 37.044C295.15 36.2227 294.861 35.168 294.861 33.88C294.861 32.704 295.15 31.696 295.729 30.856C296.326 29.9973 297.138 29.3347 298.165 28.868C299.21 28.4013 300.405 28.1773 301.749 28.196C302.626 28.196 303.494 28.3733 304.353 28.728C305.211 29.0827 305.995 29.6333 306.705 30.38C307.433 31.108 308.002 32.032 308.413 33.152L305.221 34.3C304.81 33.236 304.297 32.4707 303.681 32.004C303.083 31.5373 302.43 31.2947 301.721 31.276C301.049 31.276 300.461 31.388 299.957 31.612C299.471 31.836 299.098 32.144 298.837 32.536C298.594 32.9093 298.473 33.3573 298.473 33.88C298.473 34.44 298.65 34.9253 299.005 35.336C299.359 35.728 299.807 36.064 300.349 36.344C300.909 36.6053 301.665 36.9133 302.617 37.268C303.923 37.7907 304.978 38.276 305.781 38.724C306.602 39.1533 307.302 39.7693 307.881 40.572C308.459 41.356 308.749 42.3547 308.749 43.568C308.749 44.7627 308.441 45.8173 307.825 46.732C307.227 47.628 306.369 48.3373 305.249 48.86C304.129 49.364 302.813 49.6067 301.301 49.588C299.789 49.588 298.407 49.168 297.157 48.328C295.906 47.488 294.833 46.3027 293.937 44.772L296.877 43.092Z" fill="#4B4453"/>
</svg>
