<svg width="44" height="44" viewBox="0 0 44 44" fill="none" xmlns="http://www.w3.org/2000/svg">
<mask id="mask0_617_9754" style="mask-type:luminance" maskUnits="userSpaceOnUse" x="1" y="4" width="40" height="25">
<path d="M1.97656 4.45312H40.6754V28.5026H1.97656V4.45312Z" fill="white"/>
</mask>
<g mask="url(#mask0_617_9754)">
<path fill-rule="evenodd" clip-rule="evenodd" d="M11.266 11.9928L15.3132 25.7945C15.3421 25.8914 15.4014 25.9764 15.4823 26.0371C15.5632 26.0978 15.6614 26.1308 15.7625 26.1315H33.9676C34.0688 26.1311 34.1671 26.0981 34.2481 26.0374C34.329 25.9767 34.3882 25.8916 34.4169 25.7945L38.285 12.5948C38.3062 12.5247 38.3106 12.4506 38.2979 12.3785C38.2852 12.3064 38.2557 12.2383 38.2118 12.1797C38.1679 12.1211 38.1108 12.0737 38.0452 12.0412C37.9796 12.0087 37.9072 11.9922 37.834 11.9928H11.266ZM33.9676 28.5026H15.7625C15.1496 28.4995 14.5539 28.2994 14.0635 27.9319C13.573 27.5643 13.2137 27.0488 13.0386 26.4615L8.55449 11.1679L8.54396 11.1293L7.28383 7.15064C7.25408 7.05496 7.19433 6.9714 7.11342 6.91229C7.03251 6.85319 6.93473 6.82169 6.83454 6.82244H3.16122C2.84703 6.82244 2.54571 6.69763 2.32354 6.47546C2.10137 6.2533 1.97656 5.95197 1.97656 5.63778C1.97656 5.32359 2.10137 5.02227 2.32354 4.8001C2.54571 4.57794 2.84703 4.45312 3.16122 4.45312H6.83454C8.08063 4.45312 9.16876 5.24992 9.54258 6.43633L10.5517 9.6235H37.8357C38.7396 9.6235 39.568 10.0377 40.1103 10.7625C40.6508 11.4856 40.8141 12.3947 40.5596 13.2617L36.6915 26.4597C36.3404 27.6619 35.2172 28.5026 33.9676 28.5026Z" fill="#4B4453"/>
</g>
<mask id="mask1_617_9754" style="mask-type:luminance" maskUnits="userSpaceOnUse" x="13" y="30" width="11" height="10">
<path d="M13.7246 30.0723H23.6512V39.9988H13.7264L13.7246 30.0723Z" fill="white"/>
</mask>
<g mask="url(#mask1_617_9754)">
<path fill-rule="evenodd" clip-rule="evenodd" d="M18.6836 30.0712C18.024 30.0588 17.3687 30.178 16.7557 30.4218C16.1428 30.6656 15.5846 31.0292 15.1138 31.4912C14.643 31.9532 14.269 32.5045 14.0137 33.1127C13.7584 33.7209 13.627 34.374 13.627 35.0336C13.627 35.6932 13.7584 36.3463 14.0137 36.9545C14.269 37.5627 14.643 38.114 15.1138 38.576C15.5846 39.038 16.1428 39.4016 16.7557 39.6454C17.3687 39.8892 18.024 40.0084 18.6836 39.996C19.9835 39.9715 21.222 39.438 22.1326 38.51C23.0433 37.582 23.5535 36.3338 23.5535 35.0336C23.5535 33.7334 23.0433 32.4851 22.1326 31.5572C21.222 30.6292 19.9835 30.0956 18.6836 30.0712ZM18.6836 32.4405C19.3482 32.4751 19.9742 32.7635 20.4324 33.2461C20.8906 33.7288 21.146 34.3689 21.146 35.0345C21.146 35.7 20.8906 36.3401 20.4324 36.8228C19.9742 37.3055 19.3482 37.5938 18.6836 37.6284C18.0189 37.5938 17.3929 37.3055 16.9347 36.8228C16.4765 36.3401 16.2211 35.7 16.2211 35.0345C16.2211 34.3689 16.4765 33.7288 16.9347 33.2461C17.3929 32.7635 18.0189 32.4751 18.6836 32.4405Z" fill="#4B4453"/>
</g>
<mask id="mask2_617_9754" style="mask-type:luminance" maskUnits="userSpaceOnUse" x="24" y="30" width="11" height="10">
<path d="M24.9746 30.0723H34.9012V39.9988H24.9746V30.0723Z" fill="white"/>
</mask>
<g mask="url(#mask2_617_9754)">
<path fill-rule="evenodd" clip-rule="evenodd" d="M29.9336 30.0712C29.274 30.0588 28.6187 30.178 28.0057 30.4218C27.3928 30.6656 26.8346 31.0292 26.3638 31.4912C25.893 31.9532 25.519 32.5045 25.2637 33.1127C25.0084 33.7209 24.877 34.374 24.877 35.0336C24.877 35.6932 25.0084 36.3463 25.2637 36.9545C25.519 37.5627 25.893 38.114 26.3638 38.576C26.8346 39.038 27.3928 39.4016 28.0057 39.6454C28.6187 39.8892 29.274 40.0084 29.9336 39.996C31.2335 39.9715 32.472 39.438 33.3826 38.51C34.2933 37.582 34.8035 36.3338 34.8035 35.0336C34.8035 33.7334 34.2933 32.4851 33.3826 31.5572C32.472 30.6292 31.2335 30.0956 29.9336 30.0712ZM29.9336 32.4405C30.5982 32.4751 31.2242 32.7635 31.6824 33.2461C32.1406 33.7288 32.396 34.3689 32.396 35.0345C32.396 35.7 32.1406 36.3401 31.6824 36.8228C31.2242 37.3055 30.5982 37.5938 29.9336 37.6284C29.2689 37.5938 28.6429 37.3055 28.1847 36.8228C27.7265 36.3401 27.4711 35.7 27.4711 35.0345C27.4711 34.3689 27.7265 33.7288 28.1847 33.2461C28.6429 32.7635 29.2689 32.4751 29.9336 32.4405Z" fill="#4B4453"/>
</g>
</svg>
