<svg width="241" height="29" viewBox="0 0 241 29" fill="none" xmlns="http://www.w3.org/2000/svg">
<path d="M38.0222 17.9041V16.202L13.794 15.9379C11.1673 16.114 10.6315 18.2269 10.6109 19.1366V24.1253C10.6109 24.947 12.0119 26.1892 12.7124 26.7077H9.68384V27.5H40V26.7077H38.0222V25.3284H14.6902C12.9101 24.9998 12.4651 23.8612 12.4651 23.333V19.6648C12.7865 18.0449 13.794 17.5813 14.6902 17.5813L38.0222 17.9041Z" fill="#845EC2"/>
<path fill-rule="evenodd" clip-rule="evenodd" d="M7.76783 7.39843C7.4897 7.56472 6.74802 7.90317 6.00634 7.92665C5.39857 7.90709 3.92346 7.53929 2.8851 6.22462C2.52977 5.78904 1.96378 5.13798 1.53775 4.64792C1.28449 4.3566 1.0807 4.12217 1 4.02371C1 4.02371 1.34006 4.1411 2.14342 4.22913C2.51438 4.28781 3.30539 4.235 3.7504 4.1411C4.49208 3.89655 6.00646 3.64221 6.46989 3.8183C6.82013 3.93567 7.68748 4.54604 8.35499 6.04853C8.3604 6.0025 8.36505 5.9199 8.37114 5.81179C8.39996 5.29965 8.46103 4.21485 8.78764 3.73025C9.07593 3.21032 9.68657 3.07316 10.3941 2.91424C10.4453 2.90274 10.497 2.89112 10.5491 2.87923C11.2599 2.75207 12.9843 2.29819 14.1957 1.5C13.8867 3.01618 12.972 6.17178 11.7853 6.66479C11.2805 6.86042 10.0979 7.22822 9.40571 7.13431C9.67354 8.32769 10.6851 10.8084 12.5887 11.184C13.8558 11.585 17.0636 11.9939 19.7583 10.421C21.8082 9.27653 26.1553 6.9465 27.1442 6.78217C28.1228 6.50828 30.5559 6.17765 32.4596 7.04628C33.4279 7.52558 35.313 9.01242 35.9826 10.7731C36.2504 11.4774 36.7737 13.4201 36.7243 15.5564L13.794 15.2336C12.8052 15.2336 12.0634 15.6445 12.0634 15.6445C11.3836 15.9379 10.8582 16.5835 10.8582 16.5835C9.82805 15.5075 8.16957 13.0034 7.76783 10.7438C7.58522 9.7167 7.54533 7.89144 7.76783 7.39843ZM30.9453 10.3916C30.2036 10.3036 30.0182 11.4628 30.9453 11.5948C31.5634 11.6828 31.996 10.5164 30.9453 10.3916Z" fill="#845EC2"/>
<path d="M14.2266 18.6964L36.8788 19.0192M14.1339 20.5451L36.817 20.8093M36.817 22.5113L14.103 22.3059M14.103 24.1253H36.8788M7.76783 7.39843C7.4897 7.56472 6.74802 7.90317 6.00634 7.92665C5.39857 7.90709 3.92346 7.53929 2.8851 6.22462C2.52977 5.78904 1.96378 5.13798 1.53775 4.64792C1.28449 4.3566 1.0807 4.12218 1 4.02371C1 4.02371 1.34006 4.1411 2.14342 4.22913C2.51438 4.28781 3.30539 4.235 3.7504 4.1411C4.49208 3.89655 6.00646 3.64221 6.46989 3.8183C6.82013 3.93567 7.68748 4.54604 8.35499 6.04853C8.3604 6.0025 8.36505 5.9199 8.37114 5.81179C8.39996 5.29965 8.46103 4.21485 8.78764 3.73025C9.07593 3.21032 9.68657 3.07316 10.3941 2.91424C10.4453 2.90274 10.497 2.89112 10.5491 2.87923C11.2599 2.75207 12.9843 2.29819 14.1957 1.5C13.8867 3.01618 12.972 6.17178 11.7853 6.66479C11.2805 6.86042 10.0979 7.22822 9.40571 7.13431C9.67354 8.32769 10.6851 10.8084 12.5887 11.184C13.8558 11.585 17.0636 11.9939 19.7583 10.421C21.8082 9.27653 26.1553 6.9465 27.1442 6.78217C28.1228 6.50828 30.5559 6.17765 32.4596 7.04628C33.4279 7.52558 35.313 9.01242 35.9826 10.7731C36.2504 11.4774 36.7737 13.4201 36.7243 15.5564L13.794 15.2336C12.8052 15.2336 12.0634 15.6445 12.0634 15.6445C11.3836 15.9379 10.8582 16.5835 10.8582 16.5835C9.82805 15.5075 8.16957 13.0034 7.76783 10.7438C7.58522 9.7167 7.54533 7.89144 7.76783 7.39843ZM30.9453 10.3916C30.2036 10.3036 30.0182 11.4628 30.9453 11.5948C31.5634 11.6828 31.996 10.5164 30.9453 10.3916ZM38.0222 16.202V17.9041L14.6902 17.5813C13.794 17.5813 12.7865 18.0449 12.4651 19.6648V23.333C12.4651 23.8612 12.9101 24.9998 14.6902 25.3284H38.0222V26.7077H40V27.5H9.68384V26.7077H12.7124C12.0119 26.1892 10.6109 24.947 10.6109 24.1253V19.1366C10.6315 18.2269 11.1673 16.114 13.794 15.9379L38.0222 16.202Z" stroke="#845EC2" stroke-width="0.5" stroke-linecap="round"/>
<path d="M69.575 27.825H66.7L62.35 14.55L58.4 27.825H55.5L49.625 9.125H53L56.95 22.025L60.6 9.15H64.075L67.875 22.025L71.225 9.125H74.6L69.575 27.825ZM92.2594 27.825H89.0344V19.6H80.8594V27.825H77.6344V9.125H80.8594V16.825H89.0344V9.125H92.2594V27.825ZM112.902 27.825H109.477L107.702 22.925H100.477L98.627 27.825H95.202L102.177 9.125H106.077L112.902 27.825ZM106.677 20.15L104.127 13.15L101.502 20.15H106.677ZM118.92 25.025H127.095V27.825H115.695V9.125H118.92V25.025ZM142.128 11.9H132.928V16.8H140.803V19.575H132.928V25.025H142.128V27.825H129.703V9.125H142.128V11.9ZM151.12 9.125H154.345V16.825H158.595C159.228 16.825 159.837 16.9417 160.42 17.175C161.003 17.4083 161.553 17.7 162.07 18.05C162.753 18.5 163.312 19.1333 163.745 19.95C164.195 20.7667 164.42 21.5917 164.42 22.425C164.42 23.4583 164.203 24.3833 163.77 25.2C163.337 26.0167 162.728 26.6583 161.945 27.125C161.162 27.5917 160.278 27.825 159.295 27.825H151.12V9.125ZM158.795 25.025C159.528 25.025 160.112 24.7917 160.545 24.325C160.995 23.8583 161.22 23.225 161.22 22.425C161.22 21.575 160.995 20.8917 160.545 20.375C160.112 19.8583 159.528 19.6 158.795 19.6H154.345V25.025H158.795ZM157.495 16.825C158.145 16.8083 158.662 16.5833 159.045 16.15C159.445 15.7167 159.645 15.15 159.645 14.45C159.645 13.6833 159.437 13.0667 159.02 12.6C158.603 12.1333 158.037 11.9 157.32 11.9H151.12V9.125H157.72C158.703 9.125 159.578 9.34167 160.345 9.775C161.128 10.1917 161.737 10.7917 162.17 11.575C162.62 12.3417 162.845 13.2167 162.845 14.2C162.845 14.8667 162.662 15.5583 162.295 16.275C161.945 16.975 161.487 17.5583 160.92 18.025L157.495 16.825ZM176.239 25.2C177.472 25.2 178.555 24.925 179.489 24.375C180.422 23.825 181.139 23.0417 181.639 22.025C182.155 21.0083 182.414 19.825 182.414 18.475C182.414 17.125 182.155 15.9417 181.639 14.925C181.139 13.9083 180.422 13.125 179.489 12.575C178.555 12.0083 177.472 11.725 176.239 11.725C175.005 11.725 173.922 12.0083 172.989 12.575C172.072 13.125 171.355 13.9083 170.839 14.925C170.339 15.9417 170.089 17.125 170.089 18.475C170.089 19.825 170.339 21.0083 170.839 22.025C171.355 23.0417 172.072 23.825 172.989 24.375C173.922 24.925 175.005 25.2 176.239 25.2ZM176.239 8.925C178.055 8.925 179.672 9.33333 181.089 10.15C182.522 10.95 183.639 12.075 184.439 13.525C185.239 14.975 185.639 16.625 185.639 18.475C185.639 20.3083 185.239 21.9583 184.439 23.425C183.639 24.875 182.522 26.0083 181.089 26.825C179.672 27.625 178.055 28.025 176.239 28.025C174.439 28.025 172.822 27.625 171.389 26.825C169.955 26.0083 168.839 24.875 168.039 23.425C167.255 21.975 166.864 20.325 166.864 18.475C166.864 16.625 167.255 14.975 168.039 13.525C168.839 12.075 169.947 10.95 171.364 10.15C172.797 9.33333 174.422 8.925 176.239 8.925ZM197.332 25.2C198.566 25.2 199.649 24.925 200.582 24.375C201.516 23.825 202.232 23.0417 202.732 22.025C203.249 21.0083 203.507 19.825 203.507 18.475C203.507 17.125 203.249 15.9417 202.732 14.925C202.232 13.9083 201.516 13.125 200.582 12.575C199.649 12.0083 198.566 11.725 197.332 11.725C196.099 11.725 195.016 12.0083 194.082 12.575C193.166 13.125 192.449 13.9083 191.932 14.925C191.432 15.9417 191.182 17.125 191.182 18.475C191.182 19.825 191.432 21.0083 191.932 22.025C192.449 23.0417 193.166 23.825 194.082 24.375C195.016 24.925 196.099 25.2 197.332 25.2ZM197.332 8.925C199.149 8.925 200.766 9.33333 202.182 10.15C203.616 10.95 204.732 12.075 205.532 13.525C206.332 14.975 206.732 16.625 206.732 18.475C206.732 20.3083 206.332 21.9583 205.532 23.425C204.732 24.875 203.616 26.0083 202.182 26.825C200.766 27.625 199.149 28.025 197.332 28.025C195.532 28.025 193.916 27.625 192.482 26.825C191.049 26.0083 189.932 24.875 189.132 23.425C188.349 21.975 187.957 20.325 187.957 18.475C187.957 16.625 188.349 14.975 189.132 13.525C189.932 12.075 191.041 10.95 192.457 10.15C193.891 9.33333 195.516 8.925 197.332 8.925ZM217.439 17.45L224.939 27.825H220.939L215.214 19.925L212.914 22.475V27.825H209.689V9.15H212.914V17.675L220.514 9.1H224.814L217.439 17.45ZM228.693 22.225C229.26 23.3083 229.877 24.0917 230.543 24.575C231.227 25.0417 231.935 25.275 232.668 25.275C233.785 25.275 234.635 25.0417 235.218 24.575C235.802 24.0917 236.093 23.4417 236.093 22.625C236.093 22.125 235.935 21.7 235.618 21.35C235.302 21 234.902 20.7167 234.418 20.5C233.952 20.2667 233.293 20 232.443 19.7C231.277 19.2833 230.318 18.8833 229.568 18.5C228.835 18.1 228.202 17.5417 227.668 16.825C227.152 16.0917 226.893 15.15 226.893 14C226.893 12.95 227.152 12.05 227.668 11.3C228.202 10.5333 228.927 9.94167 229.843 9.525C230.777 9.10833 231.843 8.90833 233.043 8.925C233.827 8.925 234.602 9.08333 235.368 9.4C236.135 9.71667 236.835 10.2083 237.468 10.875C238.118 11.525 238.627 12.35 238.993 13.35L236.143 14.375C235.777 13.425 235.318 12.7417 234.768 12.325C234.235 11.9083 233.652 11.6917 233.018 11.675C232.418 11.675 231.893 11.775 231.443 11.975C231.01 12.175 230.677 12.45 230.443 12.8C230.227 13.1333 230.118 13.5333 230.118 14C230.118 14.5 230.277 14.9333 230.593 15.3C230.91 15.65 231.31 15.95 231.793 16.2C232.293 16.4333 232.968 16.7083 233.818 17.025C234.985 17.4917 235.927 17.925 236.643 18.325C237.377 18.7083 238.002 19.2583 238.518 19.975C239.035 20.675 239.293 21.5667 239.293 22.65C239.293 23.7167 239.018 24.6583 238.468 25.475C237.935 26.275 237.168 26.9083 236.168 27.375C235.168 27.825 233.993 28.0417 232.643 28.025C231.293 28.025 230.06 27.65 228.943 26.9C227.827 26.15 226.868 25.0917 226.068 23.725L228.693 22.225Z" fill="#4B4453"/>
</svg>
