<svg width="34" height="31" viewBox="0 0 34 31" fill="none" xmlns="http://www.w3.org/2000/svg">
<path fill-rule="evenodd" clip-rule="evenodd" d="M27.858 21.4522V11.4329C27.9105 11.43 27.9628 11.4235 28.0145 11.4135C30.2772 12.2641 31.4312 13.9345 31.4312 16.4006C31.4312 19.5526 29.4106 20.8906 27.858 21.4522ZM6.13914 21.4522C4.58653 20.8906 2.56749 19.5526 2.56749 16.4006C2.56749 13.8748 3.76988 12.1769 6.13914 11.349V21.4522ZM33.61 16.4006C33.61 12.7015 31.5732 10.4129 28.6956 9.35253C27.9283 6.78795 26.3523 4.54024 24.2028 2.94483C22.0532 1.34941 19.4454 0.491829 16.7686 0.500059C14.055 0.492285 11.4137 1.37391 9.24888 3.01C7.08404 4.64609 5.51497 6.94649 4.78182 9.55911C2.18176 10.6969 0.388672 12.929 0.388672 16.4022C0.388672 20.379 2.84993 22.8612 6.20209 23.7521C6.3538 23.7925 6.50551 23.8118 6.65399 23.8118C7.54166 23.8118 8.31796 23.1291 8.31796 22.2237V10.5807C8.31796 9.88351 7.85638 9.32832 7.24147 9.10398C8.00457 7.20302 9.3204 5.57469 11.0188 4.42956C12.7173 3.28442 14.7202 2.67514 16.7686 2.68049C18.8559 2.67637 20.8945 3.31092 22.6108 4.49894C24.327 5.68697 25.6388 7.3716 26.3699 9.3267C25.9664 9.61076 25.6791 10.0465 25.6791 10.5807V22.2237C25.6865 22.5571 25.8059 22.8783 26.0181 23.1356C25.9938 23.2276 25.9632 23.3163 25.9632 23.4148C25.9632 27.0623 24.6075 27.0623 24.0975 27.0623C24.0668 27.0623 24.041 27.0768 24.0119 27.0784C23.8116 26.7897 23.5442 26.5537 23.2328 26.3907C22.9214 26.2276 22.5752 26.1424 22.2237 26.1424H21.1068C20.529 26.1424 19.9748 26.3719 19.5662 26.7805C19.1576 27.1891 18.928 27.7433 18.928 28.3212C18.928 28.899 19.1576 29.4532 19.5662 29.8618C19.9748 30.2704 20.529 30.5 21.1068 30.5H22.2237C23.0984 30.5 23.8473 29.9819 24.1943 29.2363C25.6904 29.2056 28.0581 28.3954 28.1339 23.6375C31.3086 22.6724 33.61 20.2386 33.61 16.4006Z" fill="#4B4453"/>
</svg>
