<svg width="311" height="57" viewBox="0 0 311 57" fill="none" xmlns="http://www.w3.org/2000/svg">
<path d="M77.9429 36.07V32.535L28.2441 31.9865C22.856 32.3521 21.757 36.7404 21.7147 38.6298V48.991C21.7147 50.6975 24.5885 53.2777 26.0254 54.3544H19.813V56H82V54.3544H77.9429V51.4898H30.0824C26.4311 50.8072 25.5182 48.4424 25.5182 47.3454V39.7269C26.1775 36.3625 28.2441 35.3996 30.0824 35.3996L77.9429 36.07Z" fill="#845EC2"/>
<path fill-rule="evenodd" clip-rule="evenodd" d="M15.8827 14.2506C15.3122 14.596 13.7908 15.2989 12.2694 15.3477C11.0227 15.307 7.99683 14.5431 5.86688 11.8127C5.13799 10.908 3.97698 9.55581 3.10307 8.53799C2.58358 7.93294 2.16553 7.44606 2 7.24156C2 7.24156 2.69755 7.48535 4.34548 7.6682C5.10643 7.79007 6.729 7.68039 7.64184 7.48535C9.16323 6.97745 12.2697 6.44921 13.2203 6.81492C13.9387 7.0587 15.7179 8.3264 17.0872 11.447C17.0983 11.3513 17.1078 11.1798 17.1203 10.9553C17.1794 9.89159 17.3047 7.63854 17.9746 6.63206C18.566 5.55221 19.8186 5.26733 21.2699 4.93727C21.3749 4.91338 21.481 4.88925 21.588 4.86456C23.046 4.60045 26.5832 3.65779 29.0681 2C28.4342 5.14898 26.5578 11.7029 24.1236 12.7269C23.0882 13.1332 20.6624 13.8971 19.2425 13.702C19.7919 16.1806 21.8669 21.3327 25.7718 22.1129C28.3708 22.9458 34.9509 23.795 40.4786 20.5282C44.6836 18.1512 53.6006 13.312 55.6292 12.9707C57.6366 12.4018 62.6276 11.7151 66.5325 13.5192C68.5188 14.5147 72.3856 17.6027 73.7591 21.2596C74.3085 22.7223 75.3819 26.7571 75.2805 31.1941L28.2441 30.5237C26.2158 30.5237 24.6941 31.377 24.6941 31.377C23.2998 31.9865 22.2219 33.3273 22.2219 33.3273C20.1088 31.0926 16.7068 25.8916 15.8827 21.1986C15.5081 19.0655 15.4263 15.2745 15.8827 14.2506ZM63.4263 20.4673C61.9049 20.2844 61.5246 22.6919 63.4263 22.9661C64.6941 23.149 65.5816 20.7263 63.4263 20.4673Z" fill="#845EC2"/>
<path d="M29.1315 37.7156L75.5975 38.386M28.9414 41.5553L75.4707 42.1038M75.4707 45.6388L28.878 45.2122M28.878 48.991H75.5975M15.8827 14.2506C15.3122 14.596 13.7908 15.2989 12.2694 15.3477C11.0227 15.307 7.99683 14.5431 5.86688 11.8127C5.13799 10.908 3.97698 9.55581 3.10307 8.53799C2.58358 7.93294 2.16553 7.44606 2 7.24156C2 7.24156 2.69755 7.48535 4.34548 7.6682C5.10643 7.79007 6.729 7.68039 7.64184 7.48535C9.16323 6.97745 12.2697 6.44921 13.2203 6.81492C13.9387 7.0587 15.7179 8.3264 17.0872 11.447C17.0983 11.3513 17.1078 11.1798 17.1203 10.9553C17.1794 9.89159 17.3047 7.63854 17.9746 6.63206C18.566 5.55221 19.8186 5.26733 21.2699 4.93727C21.3749 4.91338 21.481 4.88925 21.588 4.86456C23.046 4.60045 26.5832 3.65779 29.0681 2C28.4342 5.14898 26.5578 11.7029 24.1236 12.7269C23.0882 13.1332 20.6624 13.8971 19.2425 13.702C19.7919 16.1806 21.8669 21.3327 25.7718 22.1129C28.3708 22.9458 34.9509 23.795 40.4786 20.5282C44.6836 18.1512 53.6006 13.312 55.6292 12.9707C57.6366 12.4018 62.6276 11.7151 66.5325 13.5192C68.5188 14.5147 72.3856 17.6027 73.7591 21.2596C74.3085 22.7223 75.3819 26.7571 75.2805 31.1941L28.2441 30.5237C26.2158 30.5237 24.6941 31.377 24.6941 31.377C23.2998 31.9865 22.2219 33.3273 22.2219 33.3273C20.1088 31.0926 16.7068 25.8916 15.8827 21.1986C15.5081 19.0655 15.4263 15.2745 15.8827 14.2506ZM63.4263 20.4673C61.9049 20.2844 61.5246 22.6919 63.4263 22.9661C64.6941 23.149 65.5816 20.7263 63.4263 20.4673ZM77.9429 32.535V36.07L30.0824 35.3996C28.2441 35.3996 26.1775 36.3625 25.5182 39.7269V47.3454C25.5182 48.4424 26.4311 50.8072 30.0824 51.4898H77.9429V54.3544H82V56H19.813V54.3544H26.0254C24.5885 53.2777 21.7147 50.6975 21.7147 48.991V38.6298C21.757 36.7404 22.856 32.3521 28.2441 31.9865L77.9429 32.535Z" stroke="#845EC2" stroke-linecap="round"/>
<path d="M119.164 49.364H115.944L111.072 34.496L106.648 49.364H103.4L96.82 28.42H100.6L105.024 42.868L109.112 28.448H113.004L117.26 42.868L121.012 28.42H124.792L119.164 49.364ZM144.571 49.364H140.959V40.152H131.803V49.364H128.191V28.42H131.803V37.044H140.959V28.42H144.571V49.364ZM167.69 49.364H163.854L161.866 43.876H153.774L151.702 49.364H147.866L155.678 28.42H160.046L167.69 49.364ZM160.718 40.768L157.862 32.928L154.922 40.768H160.718ZM174.43 46.228H183.586V49.364H170.818V28.42H174.43V46.228ZM200.423 31.528H190.119V37.016H198.939V40.124H190.119V46.228H200.423V49.364H186.507V28.42H200.423V31.528ZM210.495 28.42H214.107V37.044H218.867C219.576 37.044 220.257 37.1747 220.911 37.436C221.564 37.6973 222.18 38.024 222.759 38.416C223.524 38.92 224.149 39.6293 224.635 40.544C225.139 41.4587 225.391 42.3827 225.391 43.316C225.391 44.4733 225.148 45.5093 224.663 46.424C224.177 47.3387 223.496 48.0573 222.619 48.58C221.741 49.1027 220.752 49.364 219.651 49.364H210.495V28.42ZM219.091 46.228C219.912 46.228 220.565 45.9667 221.051 45.444C221.555 44.9213 221.807 44.212 221.807 43.316C221.807 42.364 221.555 41.5987 221.051 41.02C220.565 40.4413 219.912 40.152 219.091 40.152H214.107V46.228H219.091ZM217.635 37.044C218.363 37.0253 218.941 36.7733 219.371 36.288C219.819 35.8027 220.043 35.168 220.043 34.384C220.043 33.5253 219.809 32.8347 219.343 32.312C218.876 31.7893 218.241 31.528 217.439 31.528H210.495V28.42H217.887C218.988 28.42 219.968 28.6627 220.827 29.148C221.704 29.6147 222.385 30.2867 222.871 31.164C223.375 32.0227 223.627 33.0027 223.627 34.104C223.627 34.8507 223.421 35.6253 223.011 36.428C222.619 37.212 222.105 37.8653 221.471 38.388L217.635 37.044ZM238.627 46.424C240.009 46.424 241.222 46.116 242.267 45.5C243.313 44.884 244.115 44.0067 244.675 42.868C245.254 41.7293 245.543 40.404 245.543 38.892C245.543 37.38 245.254 36.0547 244.675 34.916C244.115 33.7773 243.313 32.9 242.267 32.284C241.222 31.6493 240.009 31.332 238.627 31.332C237.246 31.332 236.033 31.6493 234.987 32.284C233.961 32.9 233.158 33.7773 232.579 34.916C232.019 36.0547 231.739 37.38 231.739 38.892C231.739 40.404 232.019 41.7293 232.579 42.868C233.158 44.0067 233.961 44.884 234.987 45.5C236.033 46.116 237.246 46.424 238.627 46.424ZM238.627 28.196C240.662 28.196 242.473 28.6533 244.059 29.568C245.665 30.464 246.915 31.724 247.811 33.348C248.707 34.972 249.155 36.82 249.155 38.892C249.155 40.9453 248.707 42.7933 247.811 44.436C246.915 46.06 245.665 47.3293 244.059 48.244C242.473 49.14 240.662 49.588 238.627 49.588C236.611 49.588 234.801 49.14 233.195 48.244C231.59 47.3293 230.339 46.06 229.443 44.436C228.566 42.812 228.127 40.964 228.127 38.892C228.127 36.82 228.566 34.972 229.443 33.348C230.339 31.724 231.581 30.464 233.167 29.568C234.773 28.6533 236.593 28.196 238.627 28.196ZM262.252 46.424C263.634 46.424 264.847 46.116 265.892 45.5C266.938 44.884 267.74 44.0067 268.3 42.868C268.879 41.7293 269.168 40.404 269.168 38.892C269.168 37.38 268.879 36.0547 268.3 34.916C267.74 33.7773 266.938 32.9 265.892 32.284C264.847 31.6493 263.634 31.332 262.252 31.332C260.871 31.332 259.658 31.6493 258.612 32.284C257.586 32.9 256.783 33.7773 256.204 34.916C255.644 36.0547 255.364 37.38 255.364 38.892C255.364 40.404 255.644 41.7293 256.204 42.868C256.783 44.0067 257.586 44.884 258.612 45.5C259.658 46.116 260.871 46.424 262.252 46.424ZM262.252 28.196C264.287 28.196 266.098 28.6533 267.684 29.568C269.29 30.464 270.54 31.724 271.436 33.348C272.332 34.972 272.78 36.82 272.78 38.892C272.78 40.9453 272.332 42.7933 271.436 44.436C270.54 46.06 269.29 47.3293 267.684 48.244C266.098 49.14 264.287 49.588 262.252 49.588C260.236 49.588 258.426 49.14 256.82 48.244C255.215 47.3293 253.964 46.06 253.068 44.436C252.191 42.812 251.752 40.964 251.752 38.892C251.752 36.82 252.191 34.972 253.068 33.348C253.964 31.724 255.206 30.464 256.792 29.568C258.398 28.6533 260.218 28.196 262.252 28.196ZM284.772 37.744L293.172 49.364H288.692L282.28 40.516L279.704 43.372V49.364H276.092V28.448H279.704V37.996L288.216 28.392H293.032L284.772 37.744ZM297.377 43.092C298.011 44.3053 298.702 45.1827 299.449 45.724C300.214 46.2467 301.007 46.508 301.829 46.508C303.079 46.508 304.031 46.2467 304.685 45.724C305.338 45.1827 305.665 44.4547 305.665 43.54C305.665 42.98 305.487 42.504 305.133 42.112C304.778 41.72 304.33 41.4027 303.789 41.16C303.266 40.8987 302.529 40.6 301.577 40.264C300.27 39.7973 299.197 39.3493 298.357 38.92C297.535 38.472 296.826 37.8467 296.229 37.044C295.65 36.2227 295.361 35.168 295.361 33.88C295.361 32.704 295.65 31.696 296.229 30.856C296.826 29.9973 297.638 29.3347 298.665 28.868C299.71 28.4013 300.905 28.1773 302.249 28.196C303.126 28.196 303.994 28.3733 304.853 28.728C305.711 29.0827 306.495 29.6333 307.205 30.38C307.933 31.108 308.502 32.032 308.913 33.152L305.721 34.3C305.31 33.236 304.797 32.4707 304.181 32.004C303.583 31.5373 302.93 31.2947 302.221 31.276C301.549 31.276 300.961 31.388 300.457 31.612C299.971 31.836 299.598 32.144 299.337 32.536C299.094 32.9093 298.973 33.3573 298.973 33.88C298.973 34.44 299.15 34.9253 299.505 35.336C299.859 35.728 300.307 36.064 300.849 36.344C301.409 36.6053 302.165 36.9133 303.117 37.268C304.423 37.7907 305.478 38.276 306.281 38.724C307.102 39.1533 307.802 39.7693 308.381 40.572C308.959 41.356 309.249 42.3547 309.249 43.568C309.249 44.7627 308.941 45.8173 308.325 46.732C307.727 47.628 306.869 48.3373 305.749 48.86C304.629 49.364 303.313 49.6067 301.801 49.588C300.289 49.588 298.907 49.168 297.657 48.328C296.406 47.488 295.333 46.3027 294.437 44.772L297.377 43.092Z" fill="#4B4453"/>
</svg>
